<?xml version="1.0" encoding="UTF-8" standalone="no"?>
<svg
   xmlns:dc="http://purl.org/dc/elements/1.1/"
   xmlns:cc="http://creativecommons.org/ns#"
   xmlns:rdf="http://www.w3.org/1999/02/22-rdf-syntax-ns#"
   xmlns:svg="http://www.w3.org/2000/svg"
   xmlns="http://www.w3.org/2000/svg"
   xmlns:sodipodi="http://sodipodi.sourceforge.net/DTD/sodipodi-0.dtd"
   xmlns:inkscape="http://www.inkscape.org/namespaces/inkscape"
   version="1.1"
   id="svg2"
   xml:space="preserve"
   width="2000"
   height="2000"
   viewBox="0 0 2000 2000"
   sodipodi:docname="Cute unicorn vector and little girl on the sky with pastel star cartoon pony kawaii style.eps"><metadata
     id="metadata8"><rdf:RDF><cc:Work
         rdf:about=""><dc:format>image/svg+xml</dc:format><dc:type
           rdf:resource="http://purl.org/dc/dcmitype/StillImage" /></cc:Work></rdf:RDF></metadata><defs
     id="defs6" /><sodipodi:namedview
     pagecolor="#ffffff"
     bordercolor="#666666"
     borderopacity="1"
     objecttolerance="10"
     gridtolerance="10"
     guidetolerance="10"
     inkscape:pageopacity="0"
     inkscape:pageshadow="2"
     inkscape:window-width="640"
     inkscape:window-height="480"
     id="namedview4" /><g
     id="g10"
     inkscape:groupmode="layer"
     inkscape:label="ink_ext_XXXXXX"
     transform="matrix(1.3333333,0,0,-1.3333333,0,2000)"><g
       id="g12"
       transform="scale(0.1)"><path
         d="m 12627.1,2404.9 c 0,-192.8 -1182.2,-349.1 -2640.57,-349.1 -1458.32,0 -2640.52,156.3 -2640.52,349.1 0,192.8 1182.2,349.1 2640.52,349.1 1458.37,0 2640.57,-156.3 2640.57,-349.1"
         style="fill:#f0f0ef;fill-opacity:1;fill-rule:nonzero;stroke:none"
         id="path14" /><path
         d="m 7112.56,2404.9 c 0,-192.8 -1028.25,-349.1 -2296.65,-349.1 -1268.41,0 -2296.65,156.3 -2296.65,349.1 0,192.8 1028.24,349.1 2296.65,349.1 1268.4,0 2296.65,-156.3 2296.65,-349.1"
         style="fill:#f0f0ef;fill-opacity:1;fill-rule:nonzero;stroke:none"
         id="path16" /><path
         d="m 3454.33,3135.6 c -243.01,-63.6 -503.16,-58.4 -742.17,19.7 -213.76,69.8 -434.18,195.7 -570.07,379.8 -50.21,-107.4 -33,-244.9 3,-353 35.93,-107.8 99.6,-205.4 179.29,-286.3 118.34,-31.6 233.71,-70.2 356.22,-87.6 139.07,-19.8 282.32,-20.3 421.65,-2.9 276.49,34.6 545.73,145.2 761.68,322 -21.07,53 -37.3,107.2 -49.3,162.4 -46.66,-33.8 -104.01,-58.3 -154.5,-80.7 -66.64,-29.6 -135.24,-54.9 -205.8,-73.4"
         style="fill:#bba6da;fill-opacity:1;fill-rule:nonzero;stroke:none"
         id="path18" /><path
         d="m 8781.97,7412.21 c -40.28,-25.84 -81.86,-48.67 -118.81,-80.58 -43.04,-37.18 -80.87,-79.45 -111.47,-127.47 -63.22,-99.2 -96.73,-215.64 -87.43,-333.51 17.7,-224.55 187.05,-404.9 395.32,-469.84 68.19,278.75 189.22,546.83 357.47,778.04 -154.91,56.66 -301.32,135.99 -435.08,233.36"
         style="fill:#f575bd;fill-opacity:1;fill-rule:nonzero;stroke:none"
         id="path20" /><path
         d="m 3317.86,3758.1 c -79.06,-6.7 -158.54,-26.3 -231,-58.8 -81.01,-36.3 -152.61,-89.6 -229.45,-133.4 -122.55,-69.9 -273.77,-116 -407.41,-47.7 -56.11,28.6 -101.07,78.9 -160.04,101.8 -47.82,18.7 -88.19,-0.6 -117.44,-35.4 112.48,-94.4 223.22,-185.8 354.62,-253.6 127.24,-65.6 266.23,-110.3 408.35,-128.7 148.82,-19.3 300.85,-11.6 446.87,22.9 74.33,17.6 147.8,40.8 217.89,71.2 67.54,29.3 128.54,73.6 196.21,101.2 -10.52,87.1 -11.85,175.6 -6.3,264.1 -2.59,0.5 -5.16,1.2 -7.66,2.3 -147.2,67.6 -301.71,107.9 -464.64,94.1"
         style="fill:#e3b0dd;fill-opacity:1;fill-rule:nonzero;stroke:none"
         id="path22" /><path
         d="m 3356.09,5496.48 c 28.54,-210.35 138.88,-450.19 29.42,-654.08 -45.23,-84.2 -133.66,-145.6 -230.42,-149 -51.21,-1.8 -94.62,17.2 -139.15,40 -36.62,18.7 -78.59,36.1 -93.89,-15.6 -15.16,-51.1 16.61,-118.1 36.17,-164.6 18.75,-44.7 42.27,-87.6 68.46,-128.3 53.65,-83.2 122.92,-158.2 202.84,-216.9 19.4,-14.2 39.44,-27.5 59.97,-40 12.27,19.7 28.84,37 43.02,56 21.87,29.4 42.4,59.8 61.73,90.8 38.76,62.3 72.76,127.7 101.52,195.3 106.4,249.8 143.87,522.68 144.03,792.57 0.18,301.1 -50.19,598.4 -70.34,897.9 -64.1,19.26 -128.49,40.8 -188.46,70.36 -36.67,-258.59 -60.4,-512.85 -24.9,-774.45"
         style="fill:#bba6da;fill-opacity:1;fill-rule:nonzero;stroke:none"
         id="path24" /><path
         d="m 4067.82,4948.1 c -15.05,-114.3 -40.33,-227.3 -75.4,-337.2 -35.84,-112.3 -82.71,-221.7 -138.13,-325.6 -42.57,-79.9 -91.09,-165.2 -149.1,-238.3 46.8,-1 93.75,1.9 140.24,8.9 3.06,0.5 6.01,0.6 8.9,0.7 42.82,172.1 103.31,339.8 179.76,499.9 38,79.6 79.96,157.3 125.62,232.8 39.19,64.7 79.31,131.6 130.57,187.6 -19.9,15.5 -39.55,31.35 -58.82,47.62 -53.07,44.83 -103.41,92.66 -150.94,143.07 -0.3,-13.32 -0.81,-26.31 -1.03,-38.51 -1.13,-60.42 -3.78,-121 -11.67,-180.98"
         style="fill:#f8a4d6;fill-opacity:1;fill-rule:nonzero;stroke:none"
         id="path26" /><path
         d="m 3691.38,4785.3 c -29.23,-134.1 -72.88,-265.1 -132.23,-389 -29.52,-61.6 -63.17,-121.2 -101.29,-177.9 -21.16,-31.5 -43.84,-70.4 -72.39,-100.3 63.49,-27.9 130.35,-47.9 198.68,-59.5 60.85,93.2 128.34,179.7 182.11,278.1 53.77,98.4 98.15,201.3 134.1,307.5 36.53,107.9 62.52,218.5 80.61,331 9.04,56.22 17.47,112.2 22.1,169.03 2.66,32.59 1.48,68.62 7.32,102.12 -125.9,149.55 -228.46,318.43 -303.82,498.78 2.25,-16.38 4.53,-32.76 6.6,-49.22 38.1,-302.75 43.48,-611.11 -21.79,-910.61"
         style="fill:#abe0f8;fill-opacity:1;fill-rule:nonzero;stroke:none"
         id="path28" /><path
         d="m 2919.05,2698.9 c -116.69,-0.1 -235.21,12.6 -348.79,39.8 -22.44,5.3 -45.01,11.1 -67.49,17.4 214.12,-130 478.76,-184.8 723.01,-201.2 292.8,-19.6 623.38,43.1 810.67,290.9 -38.11,43.8 -72.78,91 -103.27,141.5 -9.18,15.2 -17.71,30.6 -25.92,46.1 -92.16,-71.9 -191.52,-133.7 -297.88,-182.9 -215.69,-99.7 -452.65,-151.5 -690.33,-151.6"
         style="fill:#f7f7ae;fill-opacity:1;fill-rule:nonzero;stroke:none"
         id="path30" /><path
         d="m 11224.8,6563.64 c 55.4,31.11 104.8,70.72 147.9,117.33 83.5,90.24 141.9,209.1 152.1,332.43 10.7,127.67 -22.9,253.88 -91,361.98 -65,103.33 -158.3,176.61 -262.4,236.31 -140.6,-142.68 -304,-261.44 -484.5,-350.69 156.7,-236.51 288.8,-489.15 393.5,-752.81 47.8,18.71 98.4,29.66 144.4,55.45"
         style="fill:#f575bd;fill-opacity:1;fill-rule:nonzero;stroke:none"
         id="path32" /><path
         d="m 8823.06,6221.71 c 4.13,25.62 8.83,51.18 13.84,76.71 -79.24,19.55 -152.86,56.93 -217.28,106.93 -17.38,-58.76 -43.34,-111.5 -82.85,-163.99 -52.87,-70.23 -117.09,-128.89 -186.43,-182.52 -66.47,-51.43 -137.23,-96.77 -207.66,-142.49 -66.29,-43.04 -136.61,-84.42 -190.62,-143.01 -49.1,-53.27 -84.82,-136.22 -43.9,-204.38 35.81,-59.64 108.05,-85.36 174.48,-86.09 152.37,-1.7 312.99,83.49 435.93,167.17 120.27,81.86 223.59,187.8 303.79,309.01 2.03,3.09 4.26,5.78 6.6,8.24 -22.19,79.45 -19.94,167.28 -5.9,254.42"
         style="fill:#fcf4e7;fill-opacity:1;fill-rule:nonzero;stroke:none"
         id="path34" /><path
         d="m 11474.1,5495.52 c -139.1,79.24 -260.4,184.61 -359.6,309.5 -19.5,-13.37 -40.4,-24.86 -61.6,-34.57 -162.3,-74.36 -349.6,-111.03 -524.6,-141.21 -146.2,-25.2 -293.7,-40.5 -441.4,-46.09 53.7,-136.12 163.6,-233.8 275.8,-324.87 118.7,-96.24 248.6,-178.93 384.7,-248.3 243,-123.88 508.3,-207.08 779.6,-237.68 136.7,-15.3 274.8,-18.4 412,-8.2 59.1,4.3 129.1,9.8 178.2,47.1 51,38.8 57.3,104.4 48.6,163.6 -17.4,117.62 -75.9,234.57 -135.9,335.79 -20.2,34.04 -42,67 -65.1,99.02 -162.7,-67.86 -346.3,3.59 -490.7,85.91"
         style="fill:#f89ece;fill-opacity:1;fill-rule:nonzero;stroke:none"
         id="path36" /><path
         d="m 8948.83,5786.46 c -27.36,21.6 -49.78,45.45 -68.04,71.05 -98.76,-135.46 -223.43,-250.76 -367.85,-336.79 -89.33,-53.2 -195.6,-105.9 -304.23,-130.08 -65.28,-75.59 -125.7,-155.05 -180.24,-238.86 -34.31,-52.7 -85.14,-122.75 -70.49,-189.68 11.49,-52.4 63.84,-81.7 109.55,-100.8 227.45,-95.2 502.95,-108.2 743.68,-67.1 460.85,78.5 858.17,372.05 1070.72,787.51 -162.32,3.93 -324.42,19.73 -484.97,47.73 -154.02,26.88 -322.2,57.58 -448.13,157.02"
         style="fill:#f89ece;fill-opacity:1;fill-rule:nonzero;stroke:none"
         id="path38" /><path
         d="m 9804.61,6747.64 c 14.68,32.45 33.15,60.77 57.45,85.81 -16.85,20.89 -33.6,41.77 -50.62,62.01 -19.52,23.21 11.19,55.23 33.72,33.72 19.92,-19.02 40.55,-37.79 61.16,-56.69 23.08,17.7 49.63,33.11 76.31,33.58 27.17,0.49 41.57,-34.83 22.27,-53.67 -12.84,-12.46 -29.34,-20.87 -46,-29.22 17.76,-17.2 35.07,-34.73 51.3,-52.93 30.2,-33.82 -17.82,-82.87 -50.1,-50.12 -20.43,20.71 -39.88,42.81 -58.85,65.44 -20.94,-18.29 -40.34,-39.43 -56.19,-61.58 -17.69,-24.72 -52.87,-3.83 -40.45,23.65 z m 298.59,-250.48 c -10.5,-24.16 -35.8,-43.84 -60.5,-61.18 13.7,-11.48 27.1,-23.13 39.9,-34.91 38,-35.05 -16.8,-85.65 -55.4,-55.41 -17.1,13.37 -34.04,27.7 -50.76,42.57 -25.15,-17.99 -50.71,-35.32 -76.7,-52.21 -23.33,-15.16 -46.34,18.22 -28.64,37.12 18.98,20.26 38.25,40.14 57.94,59.62 -23.67,23.44 -46.36,47.67 -67.27,71.97 -17.92,20.82 4.99,54.98 30.43,39.43 30.03,-18.37 60.3,-38.83 89.77,-60.54 24.83,24.69 52.33,53.39 84.73,60.96 29.5,6.86 47.5,-22.03 36.5,-47.42 z M 8942.81,6347.57 c 145.92,-53.8 295.8,-104.71 446.59,-142.77 279.19,-70.46 567.26,-92.95 854.2,-71.32 144.4,10.88 287.6,34.44 428,69.92 71.2,18.01 141.7,39.06 211.1,63.21 33.5,11.65 66.8,24.04 99.8,37.11 18.1,7.18 35,14.93 52.5,20.47 -1.4,4.01 -2.8,8.05 -4.2,12.05 -110,310.45 -259.8,605.71 -442.4,879.73 -27.1,-11.44 -54.6,-22.32 -82.4,-32.43 -385.5,-140.34 -821.74,-152.81 -1213.68,-30.27 -3.42,1.07 -6.82,2.23 -10.24,3.32 -92.02,-152.8 -174.18,-314.18 -236.7,-481.09 -39.38,-105.15 -76.49,-215.8 -102.57,-327.93"
         style="fill:#f89ece;fill-opacity:1;fill-rule:nonzero;stroke:none"
         id="path40" /><path
         d="m 11206.6,5908.72 c -5.4,-11.8 -11.9,-22.91 -19.2,-33.4 103,-125.53 227.3,-230.71 371.7,-306.35 128.6,-67.38 316.2,-133.71 435.1,-12.75 118.5,120.37 -15.3,241.76 -106.8,323.15 -114.2,101.49 -212.4,219.37 -292,349.73 -68.7,112.4 -131.3,239.4 -158.8,370.3 -17.6,-18.39 -36.1,-35.87 -55.6,-52.19 -43.9,-36.65 -91.5,-68.84 -143.1,-93.5 -35.5,-16.92 -77.8,-36.99 -119.4,-45.19 28.3,-77.15 54.4,-155.12 77.9,-233.87 25.9,-86.53 50.1,-179.56 10.2,-265.93"
         style="fill:#fcf4e7;fill-opacity:1;fill-rule:nonzero;stroke:none"
         id="path42" /><path
         d="m 10882.5,6153.34 c -79.3,-26.55 -160,-49.11 -241.5,-67.7 -294.2,-67.13 -599,-83.69 -898.66,-47.99 -282.97,33.7 -564.94,106.15 -812.57,248.5 -9.35,-48.32 -16.43,-96.77 -20.41,-145.06 -6.24,-75.78 -1,-154.95 43.9,-219.19 38.39,-54.92 100.38,-90.99 161.48,-115.38 143.99,-57.47 308.17,-79.23 461.15,-97.02 348.29,-40.49 703.41,-25.86 1046.51,46.99 84.2,17.89 167.7,39.16 250.3,63.76 65,19.41 136.6,38 191.4,80.17 66.6,51.23 62.4,124.43 42.2,199.18 -11.2,41.78 -23.8,83.27 -37.3,124.51 -23,-11.85 -48.5,-20.12 -72.2,-29.35 -37.8,-14.74 -75.9,-28.55 -114.3,-41.42"
         style="fill:#fbcce6;fill-opacity:1;fill-rule:nonzero;stroke:none"
         id="path44" /><path
         d="m 3974.71,8114.07 c -55.72,-5.71 -115.14,-3.1 -169.91,9.05 -16.79,3.72 -37.87,8.54 -58.77,15.39 33.91,-114.36 79.8,-235.06 134.3,-353.42 41.39,-3.91 85.99,-19.74 123.91,-23.99 56.57,-6.33 113.07,-8.09 169.91,-4.62 110.81,6.79 217.88,39.36 315.12,91.97 -5.79,10.93 -11.69,21.94 -17.84,33.14 h -0.01 c -63.85,116.23 -137.72,230.25 -215.49,334.05 -33.51,-27.08 -79.01,-46.13 -115.32,-61.01 -52.75,-21.61 -109.24,-34.77 -165.9,-40.56"
         style="fill:#f6f183;fill-opacity:1;fill-rule:nonzero;stroke:none"
         id="path46" /><path
         d="m 4134.24,6715.79 c 123.25,-34.79 245.2,-62.17 370.17,-72.14 -135.39,61.01 -263.28,141.65 -376.3,232.59 -91.24,73.4 -174.8,156.47 -249.08,246.97 -64.36,78.43 -125.12,163.46 -164.47,257.15 -26.41,-43.23 -50.12,-88.06 -70.94,-134.32 -59.25,-131.7 -84.07,-270.56 -116.54,-409.76 20.98,-10.72 41.2,-23.27 60.56,-37.11 0.9,0.19 1.74,0.48 2.7,0.6 186.33,23.54 366.36,-33.86 543.9,-83.98"
         style="fill:#f7f7ae;fill-opacity:1;fill-rule:nonzero;stroke:none"
         id="path48" /><path
         d="m 4187.86,6954.59 c 179.22,-140.19 376.75,-233.85 593.33,-300.21 1.25,-0.39 2.4,-0.84 3.59,-1.28 171.86,25.17 337.38,84.38 485.75,173.27 -36.12,6.64 -71.96,14.81 -107.42,24.29 -78.15,20.9 -154.53,48.25 -228.2,81.66 -76.41,34.63 -150.37,75.48 -219.34,123.33 -44.46,30.83 -106.39,69.1 -146.97,114.86 -7.91,-5.08 -16.03,-10.05 -24.63,-14.77 -52.66,-28.93 -104.02,-43.4 -154.8,-43.4 -48.96,0 -97.37,13.44 -145.93,40.33 -112.37,62.2 -224.88,197.83 -343.97,414.62 -5.74,10.45 -11.37,21.02 -17,31.58 -15.44,-24.74 -39.58,-45.08 -58.28,-67.1 -24.18,-28.5 -47.03,-58.14 -68.48,-88.74 -1.1,-1.56 -2.15,-3.17 -3.24,-4.74 66.27,-84.33 125.54,-173.98 196.02,-255.53 72.21,-83.54 152.58,-160.12 239.57,-228.17"
         style="fill:#fbc49f;fill-opacity:1;fill-rule:nonzero;stroke:none"
         id="path50" /><path
         d="m 4110.68,4493.7 c -73.05,-164.4 -129.91,-336.4 -169.35,-512 -70.35,-313.1 -88.35,-656.2 83.71,-940.7 154.68,-255.8 428.6,-422.2 727.78,-436.9 51.62,-2.5 105.37,-1.3 158.95,4.6 -72.09,82.8 -123.7,185.6 -150.65,290.6 -16.62,64.8 -25.06,132.8 -23.94,199.7 0.68,40.4 3.37,84.7 14.64,125.4 -105.41,-18 -208.67,-52.5 -309.72,-85.9 -66.02,-21.8 -94.06,82.2 -28.6,103.8 183.49,60.6 375.07,119.9 569.07,96.2 0.14,6.7 0.23,13.4 0.43,20.1 2.42,81.7 9.82,163 20.08,244.1 9.12,72 11.07,165.9 48.64,229.3 10.55,17.8 37.84,14 43.58,-5.7 11.79,-40.3 5.07,-86.4 2.49,-127.9 -2.87,-46.5 -7.55,-92.8 -10.82,-139.3 -5.6,-79.5 -9.97,-159.4 -9.86,-239.2 109,-30.5 208.25,-93 272.9,-182.8 51.54,4.2 105.76,-3.4 157.05,0.6 55.9,4.3 108.31,18.5 160.94,35.1 -35.52,216.4 -21.88,440.4 40.23,651 19.42,65.9 122.39,37.7 102.95,-28.4 -58.87,-200 -70.94,-410.7 -35.84,-614.8 56.74,-19.5 110.29,-47.4 167.84,-65.4 56.04,-17.6 114.26,-30 172.79,-35.1 60.5,-5.3 122.24,-4.4 182.49,3.4 55.5,7.2 106.87,24.8 160.2,39.1 11.1,77.1 16.79,155.2 19.92,232.7 9.95,246.2 -15.89,493 -76.9,731.8 -56.83,222.4 -144.35,434.6 -245.89,640 -192.25,-97.7 -409.63,-150.2 -631.41,-158.2 -417.13,-15.1 -835.02,119.8 -1173.33,362.6 -36.58,-68.9 -82.5,-133.3 -121.11,-201.3 -43.6,-76.8 -83.4,-155.8 -119.26,-236.5"
         style="fill:#ffffff;fill-opacity:1;fill-rule:nonzero;stroke:none"
         id="path52" /><path
         d="m 4170.54,7344.07 c -10.01,2.01 -20.75,4.29 -31.76,6.94 49.46,-59.11 97.47,-101.87 143.7,-127.45 73.62,-40.77 144.32,-39.76 222.48,3.2 78.17,42.94 116.94,102.05 122.04,186.04 0.25,4.11 0.25,8.43 0.33,12.68 -82.12,-54 -188.25,-81.53 -280.93,-90.53 -58.84,-5.71 -118.67,-2.33 -175.86,9.12"
         style="fill:#f6f183;fill-opacity:1;fill-rule:nonzero;stroke:none"
         id="path54" /><path
         d="m 4917.61,7640.45 c 99.82,-33.58 202.12,-59.71 306.05,-76.91 104.13,-17.23 210.49,-24.25 316,-22.96 53.92,0.66 107.8,3.8 161.42,9.45 44.61,4.69 91.6,18.3 136.72,16.24 16.1,70.12 23.76,142.13 21.1,215.08 -4.6,126.12 -47.93,310.43 -171.52,373.58 -68.21,34.86 -117,-20.4 -168.8,-58.26 -60.65,-44.33 -130.92,-57.82 -204.54,-46.66 -74.67,11.32 -142.84,44.97 -212.15,73.14 -72.29,29.38 -148.26,50.54 -226.07,58.27 -153.2,15.22 -304.07,-12.75 -443.14,-77.71 38.78,-59.73 75.7,-121.11 109.76,-183.11 33.17,-60.39 61.12,-116.83 84.27,-169.81 50.86,-11.31 99.36,-36.51 147.28,-56.34 47.36,-19.59 95.04,-37.65 143.62,-54"
         style="fill:#e3b0dd;fill-opacity:1;fill-rule:nonzero;stroke:none"
         id="path56" /><path
         d="m 4760.77,7132.97 c 67.21,-41.66 137.11,-79.31 209.92,-110.25 73.35,-31.19 149.21,-56.85 226.54,-76.19 38.36,-9.59 77.12,-17.52 116.09,-24.2 26.85,-4.59 53.99,-6.4 80.11,-12.51 38.42,29.46 75.29,61.11 110.31,94.89 128.84,124.25 238.54,279.29 300.78,449.68 -34.71,-6.46 -71.8,-7.9 -103.44,-11.25 -53.62,-5.71 -107.5,-8.91 -161.42,-9.62 -112.67,-1.5 -225.07,8.85 -335.95,28.78 -111.12,19.96 -220.9,50.32 -325.48,93.06 -69.21,28.29 -150.91,60.04 -215.99,106.5 34.92,-98.12 49.98,-182.23 45.63,-253.95 -4.54,-74.92 -29.82,-136.39 -76.48,-185.91 10.37,-7.75 20.61,-15.73 31.13,-23.18 32.2,-22.76 64.74,-45.08 98.25,-65.85"
         style="fill:#f8a4d6;fill-opacity:1;fill-rule:nonzero;stroke:none"
         id="path58" /><path
         d="m 6219.03,5769.71 c 89.04,-85.76 87.82,-230.61 -4.75,-313.36 -93.09,-83.23 -237.19,-63.88 -311.74,33.39 -31.66,41.31 30.02,93.86 61.76,52.45 48.01,-62.65 136.29,-79.77 197.54,-24.08 61.62,56.02 52.28,144.39 -4.57,199.15 -37.58,36.2 24.57,88.28 61.76,52.45 z m -345.72,173.52 c 12.99,15.8 40.49,14.68 61.43,-2.53 20.93,-17.19 27.37,-43.96 14.39,-59.76 -12.99,-15.81 -40.5,-14.68 -61.43,2.52 -20.94,17.2 -27.38,43.96 -14.39,59.77 z m -24.14,-157.98 c -12.98,-15.81 -40.49,-14.67 -61.42,2.53 -20.94,17.2 -27.38,43.96 -14.39,59.77 12.99,15.81 40.49,14.68 61.42,-2.52 20.94,-17.21 27.38,-43.96 14.39,-59.78 z M 5308.3,5585.27 c -114.95,-130.26 -214.69,-272.46 -302.67,-422.13 -43.74,-74.42 -83.12,-151.15 -119.11,-229.54 -20.64,-45 -37.85,-92.6 -57.12,-138.9 264.1,-101 551.02,-142.1 832.19,-107.6 209.04,25.7 414.43,96.1 588.1,216.4 172.54,119.48 302.31,290.86 386.01,482.19 142.36,325.46 150.83,680.18 59.26,1010.55 -186.61,-40.55 -369.2,-100.2 -542.45,-180.7 -321.91,-149.55 -609.4,-364.15 -844.21,-630.27"
         style="fill:#fbf3f7;fill-opacity:1;fill-rule:nonzero;stroke:none"
         id="path60" /><path
         d="m 4856.78,2925.7 c 33.16,-113.9 94.6,-210.7 177.36,-294.6 57.13,15.1 111.93,36.8 161.32,66.7 119.44,72.2 153.91,209.5 93.15,334.1 -63.22,129.6 -207.53,192.6 -345.38,203.1 -35.23,2.7 -70.22,2.4 -105,-0.1 -1.25,-45.2 -8.83,-90.7 -8.09,-135.9 0.96,-58.8 10.19,-116.8 26.64,-173.3"
         style="fill:#fabedb;fill-opacity:1;fill-rule:nonzero;stroke:none"
         id="path62" /><path
         d="m 5396.85,3052.2 c 6.59,-16.3 12.21,-33.2 16.69,-50.7 32.73,-127.9 -2.41,-251.7 -90.57,-339.4 55.24,-37.1 118.9,-60.1 187.34,-59.5 61.75,0.6 123.33,24.7 170.07,65 24.62,21.3 45.62,46.9 59.59,76.4 12.86,27.1 16.14,53.8 34.17,77.3 -29.11,61.3 -51.65,125.9 -69,186 -7.14,24.7 -13.37,49.6 -19.16,74.6 -52.66,-17.5 -107.8,-27.2 -163.24,-31.5 -37.79,-3 -83.25,-4.6 -125.89,1.8"
         style="fill:#fabedb;fill-opacity:1;fill-rule:nonzero;stroke:none"
         id="path64" /><path
         d="m 6108.72,2983.5 c -101.59,11.9 -221.16,38.6 -312.25,97.2 8.85,-35.2 19.06,-70.2 30.8,-104.7 33.77,-99.4 79.16,-218.8 168.66,-281.8 85.88,-60.4 196,-37.9 276.71,20.6 94.24,68.4 139.42,182.6 164.74,292.2 0.04,0.2 0.07,0.3 0.1,0.5 -104.78,-32.4 -224.91,-36.3 -328.76,-24"
         style="fill:#fabedb;fill-opacity:1;fill-rule:nonzero;stroke:none"
         id="path66" /><path
         d="m 3721.04,8230.16 c 31.6,-4.74 64.41,-17.69 94.38,-22.27 49.41,-7.55 98.01,-9.12 147.77,-4.04 51.22,5.24 101.51,18.46 148.88,38.66 30.22,12.89 56.84,32.38 84.62,49.27 -49.35,60.99 -99.62,117.31 -149.4,166.76 -137.37,136.47 -233.09,184.28 -286.87,184.28 -11.98,0 -21.87,-2.38 -29.69,-6.67 -42.88,-23.56 -70.63,-131.14 -19.89,-362.43 3.14,-14.34 6.58,-28.9 10.2,-43.56"
         style="fill:#f8a4d6;fill-opacity:1;fill-rule:nonzero;stroke:none"
         id="path68" /><path
         d="m 11762,8364.35 c 55.1,26.7 100.1,75.02 121.9,132.32 24.2,63.68 19.5,136.66 -27,188.89 -41.9,47.06 -96.8,55.05 -154.1,56.9 -14.3,-134.65 -43,-267.61 -85.4,-396.3 48.8,-5.27 96,-5.37 144.6,18.19"
         style="fill:#fcf4e7;fill-opacity:1;fill-rule:nonzero;stroke:none"
         id="path70" /><path
         d="m 3977.35,7679.92 c -16.01,3.65 -34.18,7.73 -52.53,12.81 14.7,-29.16 29.86,-58.02 45.47,-86.44 31.71,-57.72 63,-109.32 93.82,-155.08 39.5,-4.53 78.98,-20.76 117.72,-26.8 50.73,-7.9 103.32,-8.77 154.97,-3.41 51.25,5.33 102.72,18.07 151.24,36.4 46.66,17.63 86.09,44.72 128.74,69.09 -14.09,67.63 -42.15,146.08 -83.88,234.77 -109.32,-58.44 -230.21,-91.09 -354.17,-98.28 -67.38,-3.9 -135.63,1.93 -201.38,16.94"
         style="fill:#f8a4d6;fill-opacity:1;fill-rule:nonzero;stroke:none"
         id="path72" /><path
         d="m 5686.39,6613 c 5.83,83.52 58.58,157.22 130.85,197.24 0.56,0.32 1.14,0.56 1.7,0.86 -3.75,13.98 -6.24,28.24 -8.28,42.59 -2.79,19.66 -9.23,40.63 6.69,56.32 10.05,9.89 27.55,14.99 39.21,3.82 18.2,-17.42 14.1,-35.71 11.15,-58.38 -1.11,-8.6 -2.42,-17.1 -4,-25.53 29.7,9.19 60.71,12.74 91.52,10.7 0.75,24.39 9.31,49.56 15.32,72.25 13.29,50.13 84.49,27.75 67.2,-20.33 -7.11,-19.77 -13.76,-42.83 -24.71,-62.32 15.26,-4.57 30.22,-10.5 44.64,-17.84 13.63,-6.91 27.54,-15.37 41.18,-25.03 15.8,18.98 31.77,37.66 49.61,55.46 39.06,39.02 93.3,-21.82 50.93,-54.19 -18.35,-14 -37.2,-26.38 -56.31,-38.47 36.19,-36.01 64.25,-80.57 69.22,-127.83 4.39,-41.71 -56.21,-69.97 -79.96,-30.82 -31.77,52.41 -50.93,102.1 -107.26,134.61 -47.51,27.43 -103.76,34.8 -154.78,12.54 -121.35,-52.92 -140.78,-222.38 -41.78,-307.64 24.99,-21.53 -5.7,-57.67 -32.16,-39.12 -74.23,52.01 -116.43,128.79 -109.98,221.11 z m -646.83,-698.29 c -64.95,113.38 -235.01,126.43 -309.99,17.32 -31.52,-45.87 -34.95,-102.5 -17.04,-154.34 21.23,-61.48 66.4,-89.71 111.82,-130.85 33.93,-30.74 -5.3,-84.89 -45.43,-72.67 -45.45,13.85 -83.89,49.85 -112.37,92.21 -15.5,-16.46 -31.23,-32.63 -48.46,-47.98 -39.81,-35.47 -89.26,29.33 -43.55,60.28 20.87,14.13 42.24,26.27 63.87,38.2 -6.9,15.21 -12.57,30.47 -16.77,45.16 -4.47,15.56 -7.46,31.37 -9.04,47.22 -21.22,-7.05 -45.13,-9.21 -65.88,-12.44 -50.48,-7.86 -58.96,66.3 -7.21,69.83 23.41,1.6 49.75,5.24 73.84,1.34 3.84,30.63 13.2,60.41 27.86,87.84 -8.58,0.04 -17.16,0.37 -25.82,0.9 -22.82,1.42 -41.55,0.85 -55.21,22.02 -8.75,13.57 -0.43,29.8 11.19,37.77 18.42,12.66 37.78,2.37 56.56,-4.1 13.71,-4.72 27.24,-9.88 40.24,-16.21 0.41,0.49 0.76,1.02 1.17,1.51 53.01,63.35 135.38,101.19 218.48,91.07 91.87,-11.18 159.25,-67.19 196.25,-149.92 13.19,-29.49 -28.12,-52.78 -44.51,-24.16 z m 508.78,985.14 C 5300,6674.82 4977.23,6544.33 4641.9,6536.56 c -177.2,-4.11 -348.83,29.92 -517.14,83.07 -151.52,47.85 -303.29,100.19 -461.73,115.75 5.15,-5.06 10.23,-10.16 15.18,-15.32 32.67,-33.95 -16.55,-82.15 -51.32,-51.33 -68.84,61.03 -175.75,123.94 -271.83,110.38 -85.72,-12.1 -127.83,-88.55 -124.38,-169.06 8.9,-207.34 242.38,-277.31 406.94,-324.43 15.28,-4.38 32.83,-18.35 35.23,-35.24 69.35,-488.48 336.35,-945.14 739.59,-1232.39 106.04,-75.49 220.43,-139.99 340.26,-191.99 18.29,56.4 43.09,111.5 65.93,164.3 41.09,94.96 87.82,188.04 139.87,277.51 363.82,625.52 1000.07,1076.27 1705.03,1229.71 -132.87,385.86 -402.1,729.48 -751.1,941.03 -70.63,-206.65 -203.88,-393.53 -364.09,-538.7"
         style="fill:#ffffff;fill-opacity:1;fill-rule:nonzero;stroke:none"
         id="path74" /><path
         d="m 11056.3,8546.7 c -9.9,-6.45 -22.1,-11.74 -34.8,-14.75 12.2,-21.83 20.7,-45.26 18.7,-67.91 -3.2,-36.89 -46.3,-59.77 -75.3,-31.18 -25,24.75 -34.2,62.24 -54.8,91.11 -19.7,27.73 -45,52.55 -72.8,72.24 -56.1,39.82 -123.5,62.05 -192.5,59.06 -71.2,-3.08 -140.7,-36.16 -192.8,-84.07 -53.3,-49.1 -76,-108.95 -110.1,-170.37 -13.8,-24.71 -46.8,-11.04 -49.2,13.31 -8.4,85.53 53.7,175.05 114.1,229.43 64.2,57.88 145.2,94.53 231.6,101.47 36.6,2.94 73.8,-0.14 110,-8.28 4.9,10.86 8.6,23.38 10,34.64 2,15.57 -2.8,30.38 -3.2,45.81 -1.1,33.26 47,46.24 62.9,17.03 12.9,-23.93 11.9,-53.48 3.8,-79 -4.5,-13.87 -10.7,-25.07 -18.8,-34.9 23.3,-8.82 45.7,-19.72 66.8,-32.49 0.4,0.45 0.8,0.92 1.3,1.33 12.8,11.08 26.8,19.71 36,34.52 10.6,17.11 7.3,38.37 23,52.88 12.2,11.3 34.3,13.68 46.2,0 25.6,-29.47 7.2,-68.91 -14.5,-95.14 -11,-13.38 -25.7,-23.87 -41.9,-29.55 21.7,-17.95 41.5,-37.77 59.3,-59.75 12.4,2.73 23.8,3.72 34,14.11 13.7,13.98 12.6,32.8 28,48.19 16.8,16.9 40.7,10.46 53.5,-6.9 25.1,-33.97 -9.8,-82.18 -38.5,-100.84 z m -620.3,544.84 c 84.9,109.33 255.7,88.67 312.1,-37.63 16.4,-36.76 -37.9,-68.77 -54.4,-31.81 -40.9,91.61 -151.7,103.99 -213.2,24.88 -24.8,-32 -69.1,12.91 -44.5,44.56 z M 9706.16,7847.9 c -52.64,4.35 -101.74,30.46 -135.43,71.09 -22.22,26.83 -61.77,93.91 -26.27,123.17 5.96,4.9 11.85,5.45 18.93,2.44 25.96,-11.04 33.28,-51.65 51.8,-72.52 23.08,-26.04 54.92,-45.6 89.87,-49.67 81,-9.42 129.2,60.6 139.92,131.22 6.71,44.16 75.03,31.36 75.44,-10.21 1.06,-109.44 -106.62,-204.41 -214.26,-195.52 z m -174.61,437.78 9.23,27.57 c 5.61,16.75 21.35,25.97 38.76,22.01 15.98,-3.64 27.25,-23.12 22.01,-38.76 l -9.23,-27.57 c -5.61,-16.75 -21.35,-25.98 -38.77,-22.01 -15.96,3.64 -27.24,23.12 -22,38.76 z m -325.3,77.06 c -50.83,48.53 -90.24,98.96 -155.74,130.03 -63.92,30.32 -140.07,41.3 -208.99,23.12 -66.83,-17.62 -124.56,-58.83 -166.38,-113.52 -20.7,-27.04 -37.44,-58.22 -48.11,-90.58 -11.1,-33.68 -8.72,-72.19 -25.31,-103.26 -19.16,-35.89 -67.13,-26.83 -81.14,7.45 -8.61,21.05 -7.4,45.95 -2.3,70.39 -13.02,-0.89 -26.2,0.56 -37.58,3.77 -32.96,9.31 -80.54,45.01 -66.71,84.88 7.07,20.37 28.04,33.63 49.13,22.49 19.2,-10.16 23.76,-28.46 41,-37.74 12.8,-6.9 24,-4.46 36.66,-3.39 10.48,26.27 23.55,51.08 38.88,74.64 -17.15,0.63 -34.27,6.3 -48.79,15.79 -28.5,18.62 -57.75,50.84 -42.02,86.58 7.31,16.6 29.06,20.86 44.1,13.7 19.32,-9.2 22.49,-30.47 37.69,-43.68 13.15,-11.42 29.04,-15.52 44.62,-22.28 0.58,-0.25 1.1,-0.58 1.64,-0.88 16.34,18.44 34.52,35.5 54.12,50.82 -10.68,6.98 -19.94,15.83 -28.29,27.77 -15.34,21.96 -25.09,49.87 -19.78,76.58 6.48,32.59 56.24,34.45 65.12,2.38 4.11,-14.87 3.98,-30.42 10.48,-44.7 4.71,-10.34 11.89,-21.22 19.85,-30.12 32.16,18.51 66.78,32.5 102.59,40.54 84.58,19 172.8,8.02 251.3,-28.2 73.75,-34.04 159.59,-101.12 176.95,-185.29 4.95,-23.96 -22.54,-46.8 -42.99,-27.29 z m -557.3,526.49 c 36.95,120.09 192.14,140.47 259,34.16 21.67,-34.46 -32.88,-66.06 -54.42,-31.81 -37.84,60.17 -122.93,48.75 -143.81,-19.1 -11.92,-38.71 -72.73,-22.09 -60.77,16.75 z m 2307.85,280.3 c -224.7,39.11 -447.9,106.36 -647.6,218.14 -184.7,103.36 -346.29,243.78 -466.44,418.57 -62.29,90.64 -118.64,197.16 -152.15,308.46 -32.37,-111.7 -77.91,-220.32 -128.8,-319.46 -170.98,-333.02 -456.1,-602.54 -797.76,-755.43 -164.98,-73.83 -345.74,-129.01 -527.37,-136.72 -50.72,-2.16 -104.17,-0.11 -156.72,8.03 26.71,-406.86 177.17,-807.14 440.67,-1119.88 242.57,-287.9 567.38,-489.48 935.15,-572.16 377.33,-84.82 786.12,-44.89 1138.42,115.85 678.7,309.71 1094.7,1072.65 1000,1811.51 -209.5,-38.01 -429.9,-13.05 -637.4,23.09"
         style="fill:#fcf4e7;fill-opacity:1;fill-rule:nonzero;stroke:none"
         id="path76" /><path
         d="m 10939.7,12246.9 c 32.7,-18.8 70.7,-23.9 107.1,-14.1 36.4,9.8 66.8,33.1 85.6,65.7 18.9,32.7 23.9,70.7 14.1,107.1 -9.7,36.4 -33.1,66.8 -65.7,85.6 -21.7,12.6 -45.9,19 -70.3,19 -12.3,0 -24.6,-1.6 -36.7,-4.9 -36.4,-9.7 -66.9,-33.1 -85.7,-65.7 -38.9,-67.4 -15.7,-153.8 51.6,-192.7"
         style="fill:#fac92b;fill-opacity:1;fill-rule:nonzero;stroke:none"
         id="path78" /><path
         d="m 9782.88,12449.2 c 77.79,0 141.08,63.3 141.08,141.1 0,77.8 -63.29,141.1 -141.08,141.1 -77.78,0 -141.06,-63.3 -141.06,-141.1 0,-77.8 63.28,-141.1 141.06,-141.1"
         style="fill:#fac92b;fill-opacity:1;fill-rule:nonzero;stroke:none"
         id="path80" /><path
         d="m 9027.4,10078.9 c -51.51,-118.9 -132.03,-225.07 -234.26,-304.93 -198.31,-154.95 -507.25,-225.89 -739.62,-105.25 -20.66,10.71 -5.01,37.9 14.62,34.7 237.91,-38.71 481.99,-22.62 676.83,135.74 88.42,71.86 157.93,165.64 203.88,269.74 23.6,53.5 39.78,110.2 51.11,167.4 10.96,55.5 7.81,113.8 24.72,167.8 6.23,20 39.68,29.3 49.36,6.5 47.54,-112.2 -0.81,-265.9 -46.64,-371.7 z m 1615.3,973.6 c -9.7,0 -19.6,1.2 -29.4,3.9 v 0 c -543.3,146.5 -1117.57,146.5 -1660.85,0 -58.89,-15.9 -120.51,18.1 -137.46,75.7 l -40.89,140.7 c -47.17,-21 -93.89,-43.2 -139.63,-67.1 -477.43,-249.1 -849.38,-690.1 -1022.8,-1199.1 -90.06,-264.34 -122.97,-541.19 -99.27,-819.29 28.9,-339.09 124.43,-670.36 130.19,-1011.8 2.58,-152.29 -11.94,-307.15 -55.41,-453.58 -43.82,-147.56 -118.9,-275.3 -216.32,-393.61 -99.9,-121.34 -219.82,-242.27 -248.76,-403.27 -26.9,-149.64 65.2,-266.11 172.68,-357.27 106.68,-90.48 229.74,-161.57 319.86,-270.6 89.14,-107.85 138.93,-243.24 94.97,-381.76 -42.88,-135.1 -149.93,-236.28 -243.9,-337.19 -82.85,-88.97 -186.83,-231.61 -141.75,-360.97 38.77,-111.28 181.55,-142.42 271.13,-199.22 45.76,-29.04 88.12,-66.14 112.86,-115.24 34.71,-68.8 30.17,-144.4 15.31,-217.9 -14.33,-70.8 -40.09,-142 -29.16,-215.3 8.67,-58.1 36.32,-114 74.23,-158.6 76.18,-89.6 194.53,-146.6 312.36,-126.3 49.43,174.8 99.52,349.6 158.81,521.1 -3.24,0.7 -6.51,1.3 -9.74,2 -113.96,25.6 -261.49,57.7 -335.26,157.3 -89.51,120.9 -3.2,262.22 68.11,367.31 33.72,49.7 69.58,98 107.06,145 -21.82,1.07 -43.48,3.77 -64.86,8.38 -165.77,35.68 -264.19,198.57 -195.64,358.15 71.48,166.41 270.03,250.7 411.18,347.18 76.26,52.13 148.5,108.21 212.16,175.37 49.84,52.6 100.96,116.71 135.2,183.75 -115,110.5 -191.19,263.4 -201.66,420.41 -9.15,137.39 33.91,278.86 112,391.6 54.81,79.16 136.54,164.73 231,205.79 -232.55,187.35 -421.34,430.57 -542,702.47 -54.46,-33.37 -142.08,-26.75 -194.48,-5.86 -83.61,33.35 -140.54,109.39 -160.82,196.01 -20.38,87.05 -12.53,191.53 41.98,265.21 35,47.31 115.48,90.19 174.37,66.79 -7.32,76 -9.17,152.79 -5.18,229.92 -93.01,23.23 -178.77,68.65 -235.87,147.6 -18.85,26.06 17.68,59.57 43.31,43.3 75.3,-47.8 150.79,-81.6 239.27,-96.93 87.23,-15.1 180.08,-10.4 267.18,3.53 335.05,53.59 650.36,226.26 882.23,472.77 118.52,126 214.14,272.37 285.37,429.87 72.78,160.88 103.56,326.38 133.23,498.78 10.08,58.6 103.62,43.4 101.96,-13.8 -1.06,-36.4 -4.38,-73.1 -9.42,-109.8 16.4,-73 35.25,-144.6 64.27,-215 40.6,-98.52 97.11,-191.88 164.51,-274.31 261.34,-319.62 658.74,-476.14 1056.94,-540.93 210.8,-34.3 437.2,-55.58 645.4,4.07 150,42.98 292.5,137.66 366.1,276.49 -285.9,-3.35 -570.5,102.24 -783.4,294.4 -112.2,101.28 -203.8,227.38 -266.9,364.58 -61.8,134.2 -110.5,290.2 -101.9,439.4 3,51.4 86.6,69.3 94.9,12.9 20.7,-140.1 41.5,-275.1 102.2,-404.8 58.6,-125.2 140,-238.3 242.1,-331.71 213.8,-195.62 507.7,-288.47 795,-263.9 34,2.91 61.6,-36.6 51.6,-67.7 -68.3,-211.7 -254.4,-357.82 -462.5,-420.26 15.3,-120.26 18.5,-241.36 10.1,-361.51 65.9,17.83 141.9,-5.74 194.3,-49.66 74.6,-62.59 101,-160.77 81.5,-254.41 -18.9,-90.65 -80.3,-174.29 -161.2,-219.3 -67.1,-37.32 -161.5,-56.54 -239.3,-33.68 -44.3,-114.46 -99.7,-224.89 -165.5,-329.33 -59.2,-93.93 -126.4,-181.76 -200.5,-262.68 103.7,-34.64 193.3,-108.85 260.2,-194.19 142.9,-182.39 190.5,-426.53 102.1,-643.91 -22.7,-55.99 -52.6,-109.14 -88.6,-157.68 77.4,-178.69 150.7,-352.94 274,-506.8 53.3,-66.4 112.2,-128.69 175.3,-185.77 59.4,-53.73 123.9,-104.43 166.5,-173.58 70.5,-114.37 39.1,-247.83 -52,-331.5 53,-74.13 99.3,-152.92 136.9,-236.04 53.7,-119 116,-269.59 67.5,-400.09 -54.2,-145.7 -214.5,-168.1 -350.3,-176.3 -40.6,-2.4 -81.2,-3.6 -121.8,-3.7 57.3,-143 109.3,-288.1 155.4,-435.1 54.5,-20.4 116,-18.9 169.9,3.1 139.6,56.7 204.5,194.1 259.4,324.2 56.8,134.7 115.2,264.7 230.6,359.7 94.6,78 207.9,132.45 297.1,216.88 97,91.86 119.3,213.67 56.1,333.4 -132.5,250.92 -512,411.74 -465.8,741.49 17.9,127.96 109.4,218.38 201.3,300.74 92.1,82.6 192.3,169.71 187.8,304.48 -4.8,147.08 -113.7,272 -220.9,361.16 -119.9,99.64 -257.3,179.99 -359.7,299.4 -197.7,230.68 -229,550.83 -189.9,841.35 46.3,343.79 175.5,671.19 186.4,1020.37 10,316.82 -54,637.62 -187.8,925.23 -129,277.2 -319.2,519 -555.2,713 -220.5,181.2 -472.1,296.7 -737.3,393 l -64.3,-221.2 c -14.1,-48.1 -59.4,-79.7 -108.1,-79.7"
         style="fill:#aa7738;fill-opacity:1;fill-rule:nonzero;stroke:none"
         id="path82" /><path
         d="m 8644.03,12360.1 c 0,77.8 -63.28,141 -141.07,141 -77.79,0 -141.08,-63.2 -141.08,-141 0,-77.8 63.29,-141.1 141.08,-141.1 77.79,0 141.07,63.3 141.07,141.1"
         style="fill:#fac92b;fill-opacity:1;fill-rule:nonzero;stroke:none"
         id="path84" /><path
         d="m 10597.5,4972.4 c -130.3,76.87 -254.4,166.67 -366,268.98 -98.6,90.48 -196.7,202.34 -211.5,339.9 -10.4,-0.19 -20.87,-0.25 -31.29,-0.34 2.44,-11.09 1.4,-23.38 -4.84,-36 -126,-254.56 -321.38,-472.12 -559.35,-626.94 -229.97,-149.7 -498.31,-234.1 -772.14,-247.1 -114.89,-5.5 -230.68,2.1 -344.18,21.6 -55.72,-260.2 -131.11,-516.8 -202.15,-773 -35.64,-128.6 -76.62,-256.9 -104.89,-387.4 -26.87,-123.9 -26.66,-254.1 65.16,-351.7 153.67,-163.3 419.21,-169.6 626.86,-196.1 246.15,-31.5 493.38,-54.5 741.12,-69 492.58,-28.9 987.1,-24.8 1479.1,13 245.5,18.9 490.5,45.9 734.1,81.8 63.6,9.3 127,19.2 190.4,29.7 46.3,7.7 98,12.6 138.4,38.4 75.1,47.8 72.6,154 65.3,232 -10.3,111 -35.9,222.4 -58.9,331.3 -25.1,118.5 -53.9,236.2 -86.2,352.9 -62,224.1 -137.5,444.1 -225.1,659.4 -72.6,3.6 -145,10.5 -217.1,20.5 -301.2,42.1 -594.9,143.5 -856.8,298.1"
         style="fill:#f575bd;fill-opacity:1;fill-rule:nonzero;stroke:none"
         id="path86" /><path
         d="m 7910.86,8545.04 c -21.03,-53.37 -20.65,-117.57 -4.33,-171.99 16.44,-54.8 53.89,-103.13 109.95,-120.44 23.48,-7.24 48.72,-9.33 72.92,-4.62 14.8,2.87 27.19,9.04 39.76,14.79 -42.95,113.59 -74.04,231.45 -91.62,351.75 -58.37,2.51 -102.28,-7.56 -126.68,-69.49"
         style="fill:#fcf4e7;fill-opacity:1;fill-rule:nonzero;stroke:none"
         id="path88" /><path
         d="m 9464.65,2698.3 c 26.96,-47.9 61.15,-106.7 113.56,-130.1 53.82,-24 101.01,17 119.45,66.2 20.01,53.5 5.95,107.1 0.47,161 -94.32,3.3 -188.59,7.9 -282.79,13.7 3.43,-8.6 6.53,-17.2 9.79,-25.4 11.75,-29.3 23.97,-57.9 39.52,-85.4"
         style="fill:#e34084;fill-opacity:1;fill-rule:nonzero;stroke:none"
         id="path90" /><path
         d="m 9991.34,2632.8 c 12.36,-47.8 46.76,-101.7 102.06,-101.1 60.6,0.7 102,59.9 116.5,112.6 8.8,31.9 10.3,64.9 10.1,97.8 -0.1,16.1 -1.7,31.9 -1.9,47.6 -75.9,-1 -151.8,-1.2 -227.66,-0.6 -0.9,-17.5 -3.76,-35.1 -4.93,-53.2 -2.24,-34.7 -2.9,-69.2 5.83,-103.1"
         style="fill:#e34084;fill-opacity:1;fill-rule:nonzero;stroke:none"
         id="path92" /><path
         d="m 9734.36,11469.4 c 28.46,-21.8 45.92,-20.5 71.86,4.4 18.24,17.6 34.52,37.8 50.61,57.3 36.9,44.7 72.91,92.4 101.5,143 21.67,38.3 49.47,127.3 -22.39,131 -55.51,2.8 -84.07,-53.7 -97.1,-99 -1.87,-6.5 -4.83,-11.8 -8.49,-16 0.09,-37.6 -54.66,-62.7 -74.44,-22.3 -21.87,44.7 -45.24,98.3 -89.2,125.8 -49.53,30.9 -110.94,13 -109.45,-52.1 1.28,-55.5 40.63,-113 71.48,-157.1 29.14,-41.6 65.11,-83.9 105.62,-115"
         style="fill:#f575bd;fill-opacity:1;fill-rule:nonzero;stroke:none"
         id="path94" /><path
         d="m 9546.45,11873.7 c 97.63,53.7 180.42,-12.6 235.78,-91 23.39,46.1 59.48,84.8 111.83,98.6 63.43,16.8 131.04,-10.2 157.84,-71.3 28.5,-64.6 3.2,-133.4 -31.5,-189.9 -39.87,-65 -87.34,-126.8 -138.19,-183.6 -40.3,-45 -91.77,-82.5 -154.06,-57.9 -59.7,23.6 -110.19,87 -148.25,136.4 -69.21,89.7 -176.77,279.9 -33.45,358.7 z M 8926.67,11152 c 560.15,151.1 1152.33,151.1 1712.43,0 7.3,-2 14.8,1.6 16.7,8 l 281.3,968.2 c -0.8,2.3 -4.6,7.8 -12.7,13 -12.9,8.4 -29.3,11.5 -42.8,8.1 -177.1,-43.2 -350.9,-99 -516.7,-165.8 -50,-20 -110,-9.7 -149.3,25.8 -126.9,114.5 -264.25,222.6 -408.3,321.1 -14.1,9.8 -39.83,10.3 -55.11,1.2 -150.15,-88.4 -294.43,-186.7 -428.9,-292.2 -38.03,-29.7 -92.31,-38.6 -138.35,-22.5 -162.56,57 -332,103.7 -503.64,138.7 -13.82,2.8 -30.04,-0.6 -42.48,-9 -7.52,-5.1 -11.05,-10.3 -11.82,-12.5 l 283.04,-974.2 c 1.84,-6.3 9.3,-9.9 16.63,-7.9"
         style="fill:#fac92b;fill-opacity:1;fill-rule:nonzero;stroke:none"
         id="path96" /><path
         d="m 4958.5,5267.81 c -52.05,-89.47 -98.78,-182.55 -139.87,-277.51 -22.84,-52.8 -47.64,-107.9 -65.93,-164.3 25.33,-11 50.9,-21.4 76.7,-31.3 19.27,46.3 36.48,93.9 57.12,138.9 35.99,78.39 75.37,155.12 119.11,229.54 87.98,149.67 187.72,291.87 302.67,422.13 234.81,266.12 522.3,480.72 844.21,630.27 173.25,80.5 355.84,140.15 542.45,180.7 -9.43,34.03 -19.91,67.82 -31.43,101.28 C 5958.57,6344.08 5322.32,5893.33 4958.5,5267.81"
         style="fill:#fbf3f7;fill-opacity:1;fill-rule:nonzero;stroke:none"
         id="path98" /><path
         d="m 4128.11,6876.24 c 113.02,-90.94 240.91,-171.58 376.3,-232.59 58.2,-4.65 117.04,-5.53 177,-1.59 34.65,2.28 69.13,6.02 103.37,11.04 -1.19,0.44 -2.34,0.89 -3.59,1.28 -216.58,66.36 -414.11,160.02 -593.33,300.21 -86.99,68.05 -167.36,144.63 -239.57,228.17 -70.48,81.55 -129.75,171.2 -196.02,255.53 -13.14,-18.95 -25.7,-38.28 -37.71,-57.93 39.35,-93.69 100.11,-178.72 164.47,-257.15 74.28,-90.5 157.84,-173.57 249.08,-246.97"
         style="fill:#731422;fill-opacity:1;fill-rule:nonzero;stroke:none"
         id="path100" /><path
         d="m 4715.57,7055.65 c 68.97,-47.85 142.93,-88.7 219.34,-123.33 73.67,-33.41 150.05,-60.76 228.2,-81.66 35.46,-9.48 71.3,-17.65 107.42,-24.29 42.45,25.44 83.51,53.26 122.9,83.45 -26.12,6.11 -53.26,7.92 -80.11,12.51 -38.97,6.68 -77.73,14.61 -116.09,24.2 -77.33,19.34 -153.19,45 -226.54,76.19 -72.81,30.94 -142.71,68.59 -209.92,110.25 -33.51,20.77 -66.05,43.09 -98.25,65.85 -10.52,7.45 -20.76,15.43 -31.13,23.18 -17.79,-18.88 -38.7,-36.02 -62.79,-51.49 40.58,-45.76 102.51,-84.03 146.97,-114.86"
         style="fill:#731422;fill-opacity:1;fill-rule:nonzero;stroke:none"
         id="path102" /><path
         d="m 5203.71,7462.3 c 110.88,-19.93 223.28,-30.28 335.95,-28.78 53.92,0.71 107.8,3.91 161.42,9.62 31.64,3.35 68.73,4.79 103.44,11.25 13.38,36.63 24.57,73.97 33.28,111.88 -45.12,2.06 -92.11,-11.55 -136.72,-16.24 -53.62,-5.65 -107.5,-8.79 -161.42,-9.45 -105.51,-1.29 -211.87,5.73 -316,22.96 -103.93,17.2 -206.23,43.33 -306.05,76.91 -48.58,16.35 -96.26,34.41 -143.62,54 -47.92,19.83 -96.42,45.03 -147.28,56.34 13.47,-30.81 25.41,-60.52 35.53,-88.93 65.08,-46.46 146.78,-78.21 215.99,-106.5 104.58,-42.74 214.36,-73.1 325.48,-93.06"
         style="fill:#731422;fill-opacity:1;fill-rule:nonzero;stroke:none"
         id="path104" /><path
         d="m 10220,2742.1 c 0.2,-32.9 -1.3,-65.9 -10.1,-97.8 -14.5,-52.7 -55.9,-111.9 -116.5,-112.6 -55.3,-0.6 -89.7,53.3 -102.06,101.1 -8.73,33.9 -8.07,68.4 -5.83,103.1 1.17,18.1 4.03,35.7 4.93,53.2 -25.43,0.2 -50.85,0.6 -76.27,1 -24.09,-66.6 -21.76,-154.8 -0.58,-211.9 27.36,-73.8 91.21,-137.4 173.41,-140.9 80.5,-3.4 154.8,53.5 190.7,122.6 21.8,41.7 31.3,87.7 35.1,134.3 2.4,30.4 4.7,64.9 0.5,97.1 -31.7,-0.6 -63.5,-1.2 -95.2,-1.6 0.2,-15.7 1.8,-31.5 1.9,-47.6"
         style="fill:#731422;fill-opacity:1;fill-rule:nonzero;stroke:none"
         id="path106" /><path
         d="m 9697.66,2634.4 c -18.44,-49.2 -65.63,-90.2 -119.45,-66.2 -52.41,23.4 -86.6,82.2 -113.56,130.1 -15.55,27.5 -27.77,56.1 -39.52,85.4 -3.26,8.2 -6.36,16.8 -9.79,25.4 -23.93,1.5 -47.85,3.1 -71.78,4.7 -6.54,-62.7 38.05,-146.6 64.29,-192.1 39.81,-69 99.62,-142.5 183.57,-153.8 174.91,-23.6 230.55,182.5 205.5,324.5 -32.94,0.9 -65.87,1.9 -98.79,3 5.48,-53.9 19.54,-107.5 -0.47,-161"
         style="fill:#731422;fill-opacity:1;fill-rule:nonzero;stroke:none"
         id="path108" /><path
         d="m 11936.5,4218.4 c 2.2,-0.9 4.4,-1.7 6.6,-2.5 -46.1,147 -98.1,292.1 -155.4,435.1 -38.8,-0.1 -77.5,0.9 -116.3,2.8 87.6,-215.3 163.1,-435.3 225.1,-659.4 32.3,-116.7 61.1,-234.4 86.2,-352.9 23,-108.9 48.6,-220.3 58.9,-331.3 7.3,-78 9.8,-184.2 -65.3,-232 -40.4,-25.8 -92.1,-30.7 -138.4,-38.4 -63.4,-10.5 -126.8,-20.4 -190.4,-29.7 -243.6,-35.9 -488.6,-62.9 -734.1,-81.8 -492,-37.8 -986.52,-41.9 -1479.1,-13 -247.74,14.5 -494.97,37.5 -741.12,69 -207.65,26.5 -473.19,32.8 -626.86,196.1 -91.82,97.6 -92.03,227.8 -65.16,351.7 28.27,130.5 69.25,258.8 104.89,387.4 71.04,256.2 146.43,512.8 202.15,773 -22.99,4 -45.91,8.3 -68.7,13.3 -59.29,-171.5 -109.38,-346.3 -158.81,-521.1 5.23,0.9 10.44,1.7 15.65,2.9 61.59,14.2 87.62,-79.4 26.14,-94.8 -23.47,-5.9 -47.17,-9.6 -70.94,-11.2 -8.02,-28.3 -16.06,-56.6 -24.19,-84.9 -37.25,-129.6 -75.96,-259.3 -109.69,-390 -28.93,-112 -49.75,-234 -13.03,-346.9 72.25,-222.1 309.84,-307.6 519,-343.3 256.06,-43.7 515.96,-70.8 774.76,-91.9 48.36,-4 96.77,-7.5 145.17,-10.8 23.93,-1.6 47.85,-3.2 71.78,-4.7 94.2,-5.8 188.47,-10.4 282.79,-13.7 32.92,-1.1 65.85,-2.1 98.79,-3 39.08,-1 78.16,-1.8 117.25,-2.3 25.42,-0.4 50.84,-0.8 76.27,-1 75.86,-0.6 151.76,-0.4 227.66,0.6 31.7,0.4 63.5,1 95.2,1.6 153.5,3.3 307,9.8 460.3,19.6 261.2,16.7 521.7,43 781.1,78.2 123.5,16.8 249,31.5 371,57.4 102.9,22 182.5,82.3 212.1,185.7 31.6,110.2 6.6,228.9 -12.8,338.8 -24.4,138.7 -53.8,276.5 -88.1,413.1 -18.5,73.9 -38.6,147.4 -59.9,220.4 -25.2,7.1 -49.8,18.7 -73.3,36 -35.6,26.1 -15.3,97.7 32.8,77.9"
         style="fill:#731422;fill-opacity:1;fill-rule:nonzero;stroke:none"
         id="path110" /><path
         d="m 8652.38,4670.9 c 273.83,13 542.17,97.4 772.14,247.1 237.97,154.82 433.35,372.38 559.35,626.94 6.24,12.62 7.28,24.91 4.84,36 -35.59,-0.29 -71.19,-0.09 -106.78,0.77 -212.55,-415.46 -609.87,-709.01 -1070.72,-787.51 -240.73,-41.1 -516.23,-28.1 -743.68,67.1 -45.71,19.1 -98.06,48.4 -109.55,100.8 -14.65,66.93 36.18,136.98 70.49,189.68 54.54,83.81 114.96,163.27 180.24,238.86 -46.3,-10.31 -93.02,-15.46 -139.04,-13.23 -37.48,-47 -73.34,-95.3 -107.06,-145 -71.31,-105.09 -157.62,-246.41 -68.11,-367.31 73.77,-99.6 221.3,-131.7 335.26,-157.3 3.23,-0.7 6.5,-1.3 9.74,-2 22.79,-5 45.71,-9.3 68.7,-13.3 113.5,-19.5 229.29,-27.1 344.18,-21.6"
         style="fill:#731422;fill-opacity:1;fill-rule:nonzero;stroke:none"
         id="path112" /><path
         d="m 8096.34,4187.6 c -5.21,-1.2 -10.42,-2 -15.65,-2.9 -117.83,-20.3 -236.18,36.7 -312.36,126.3 -37.91,44.6 -65.56,100.5 -74.23,158.6 -10.93,73.3 14.83,144.5 29.16,215.3 14.86,73.5 19.4,149.1 -15.31,217.9 -24.74,49.1 -67.1,86.2 -112.86,115.24 -89.58,56.8 -232.36,87.94 -271.13,199.22 -45.08,129.36 58.9,272 141.75,360.97 93.97,100.91 201.02,202.09 243.9,337.19 43.96,138.52 -5.83,273.91 -94.97,381.76 -90.12,109.03 -213.18,180.12 -319.86,270.6 -107.48,91.16 -199.58,207.63 -172.68,357.27 28.94,161 148.86,281.93 248.76,403.27 97.42,118.31 172.5,246.05 216.32,393.61 43.47,146.43 57.99,301.29 55.41,453.58 -5.76,341.44 -101.29,672.71 -130.19,1011.8 -23.7,278.1 9.21,554.95 99.27,819.29 173.42,509 545.37,950 1022.8,1199.1 45.74,23.9 92.46,46.1 139.63,67.1 l -21.78,75 c -510.13,-188.1 -923.65,-614.5 -1148.7,-1103.5 -115.83,-251.66 -185.89,-523.8 -197.7,-800.98 -15,-351.92 79.75,-694.12 118.38,-1041.41 34.34,-308.78 21.94,-646.5 -159.52,-911.35 -93.32,-136.2 -222.29,-247 -294.82,-397.48 -67.76,-140.58 -79.83,-297.74 3.48,-434.68 74.97,-123.22 197.48,-204.81 310.08,-290.08 107.34,-81.3 235.96,-194.32 237.58,-340.49 1.63,-147.22 -122.63,-260.85 -215.62,-359.92 -97.5,-103.89 -189.85,-230.71 -196.02,-378.69 -5.87,-140.46 87.82,-233.84 204.21,-294.02 51.12,-26.5 106.96,-48.5 152.68,-84.1 54.48,-42.4 70.44,-100.5 61.52,-167.9 -10.37,-78.5 -40.36,-153.7 -40.31,-233.6 0.05,-65.3 18.19,-129.3 48.57,-186.7 59.33,-112.1 170.33,-200.6 293.74,-230.8 40.2,-9.8 81.04,-13.3 121.67,-10.5 23.77,1.6 47.47,5.3 70.94,11.2 61.48,15.4 35.45,109 -26.14,94.8"
         style="fill:#731422;fill-opacity:1;fill-rule:nonzero;stroke:none"
         id="path114" /><path
         d="m 12706.2,5899.41 c -93.7,112.67 -156,257.59 -64.3,390.32 70.7,102.22 183.8,167.24 260.1,265.17 92.7,119.03 106.1,265.68 48.4,404.02 -61.3,147.15 -177.4,251.37 -301.8,345.48 -125.9,95.18 -258.2,185.38 -339,324.96 -78.6,136 -107.2,294.7 -108.5,450.25 -2.9,354.58 138.9,689.81 184.7,1038.16 43,326.34 6.7,662.34 -102.7,972.73 -210.1,595.9 -687.5,1071.5 -1284.3,1279.6 -54.9,19.1 -109.8,33.2 -166.2,43.6 l -17.5,-60.3 c 265.2,-96.3 516.8,-211.8 737.3,-393 236,-194 426.2,-435.8 555.2,-713 133.8,-287.61 197.8,-608.41 187.8,-925.23 -10.9,-349.18 -140.1,-676.58 -186.4,-1020.37 -39.1,-290.52 -7.8,-610.67 189.9,-841.35 102.4,-119.41 239.8,-199.76 359.7,-299.4 107.2,-89.16 216.1,-214.08 220.9,-361.16 4.5,-134.77 -95.7,-221.88 -187.8,-304.48 -91.9,-82.36 -183.4,-172.78 -201.3,-300.74 -46.2,-329.75 333.3,-490.57 465.8,-741.49 63.2,-119.73 40.9,-241.54 -56.1,-333.4 -89.2,-84.43 -202.5,-138.88 -297.1,-216.88 -115.4,-95 -173.8,-225 -230.6,-359.7 -54.9,-130.1 -119.8,-267.5 -259.4,-324.2 -53.9,-22 -115.4,-23.5 -169.9,-3.1 -2.2,0.8 -4.4,1.6 -6.6,2.5 -48.1,19.8 -68.4,-51.8 -32.8,-77.9 23.5,-17.3 48.1,-28.9 73.3,-36 105.3,-29.5 219.8,23.2 303.9,95.2 118.8,101.7 165,251.3 227.2,389.3 31.9,70.6 68.6,139.8 123.6,195.2 43.9,44.2 95.1,79.5 146.7,114 102.9,68.7 218.7,137.49 280.2,249.5 70.8,129.09 45.1,275.51 -30.7,396.04 -86.5,137.58 -219,232.16 -321.7,355.67"
         style="fill:#731422;fill-opacity:1;fill-rule:nonzero;stroke:none"
         id="path116" /><path
         d="m 2680.6,2808.2 c -122.51,17.4 -237.88,56 -356.22,87.6 18.16,-18.5 37.14,-36.1 56.82,-52.7 38.12,-32.2 78.86,-61.1 121.57,-87 22.48,-6.3 45.05,-12.1 67.49,-17.4 113.58,-27.2 232.1,-39.9 348.79,-39.8 237.68,0.1 474.64,51.9 690.33,151.6 106.36,49.2 205.72,111 297.88,182.9 -16.27,30.8 -30.68,62.1 -43.33,93.9 -215.95,-176.8 -485.19,-287.4 -761.68,-322 -139.33,-17.4 -282.58,-16.9 -421.65,2.9"
         style="fill:#731422;fill-opacity:1;fill-rule:nonzero;stroke:none"
         id="path118" /><path
         d="m 3382.36,3225.2 c -146.02,-34.5 -298.05,-42.2 -446.87,-22.9 -142.12,18.4 -281.11,63.1 -408.35,128.7 -131.4,67.8 -242.14,159.2 -354.62,253.6 -6.26,-7.5 -12.04,-15.6 -17.24,-24.3 -4.89,-8.2 -9.19,-16.6 -13.19,-25.2 135.89,-184.1 356.31,-310 570.07,-379.8 239.01,-78.1 499.16,-83.3 742.17,-19.7 70.56,18.5 139.16,43.8 205.8,73.4 50.49,22.4 107.84,46.9 154.5,80.7 -7.75,35.6 -13.78,71.6 -18.17,107.9 -67.67,-27.6 -128.67,-71.9 -196.21,-101.2 -70.09,-30.4 -143.56,-53.6 -217.89,-71.2"
         style="fill:#731422;fill-opacity:1;fill-rule:nonzero;stroke:none"
         id="path120" /><path
         d="m 3980.97,4975.2 c -18.09,-112.5 -44.08,-223.1 -80.61,-331 -35.95,-106.2 -80.33,-209.1 -134.1,-307.5 -53.77,-98.4 -121.26,-184.9 -182.11,-278.1 39.98,-6.8 80.45,-10.7 121.04,-11.6 58.01,73.1 106.53,158.4 149.1,238.3 55.42,103.9 102.29,213.3 138.13,325.6 35.07,109.9 60.35,222.9 75.4,337.2 7.89,59.98 10.54,120.56 11.67,180.98 0.22,12.2 0.73,25.19 1.03,38.51 -24.13,25.58 -47.49,51.87 -70.13,78.76 -5.84,-33.5 -4.66,-69.53 -7.32,-102.12 -4.63,-56.83 -13.06,-112.81 -22.1,-169.03"
         style="fill:#731422;fill-opacity:1;fill-rule:nonzero;stroke:none"
         id="path122" /><path
         d="m 3495.76,4510.1 c -28.76,-67.6 -62.76,-133 -101.52,-195.3 -19.33,-31 -39.86,-61.4 -61.73,-90.8 -14.18,-19 -30.75,-36.3 -43.02,-56 30.9,-18.7 62.98,-35.4 95.98,-49.9 28.55,29.9 51.23,68.8 72.39,100.3 38.12,56.7 71.77,116.3 101.29,177.9 59.35,123.9 103,254.9 132.23,389 65.27,299.5 59.89,607.86 21.79,910.61 -2.07,16.46 -4.35,32.84 -6.6,49.22 -60.51,144.83 -103.53,297.02 -127.12,452.43 -3.33,0.99 -6.66,2 -10,3.01 20.15,-299.5 70.52,-596.8 70.34,-897.9 -0.16,-269.89 -37.63,-542.77 -144.03,-792.57"
         style="fill:#731422;fill-opacity:1;fill-rule:nonzero;stroke:none"
         id="path124" /><path
         d="m 4036.45,2845.8 c -187.29,-247.8 -517.87,-310.5 -810.67,-290.9 -244.25,16.4 -508.89,71.2 -723.01,201.2 -42.71,25.9 -83.45,54.8 -121.57,87 -19.68,16.6 -38.66,34.2 -56.82,52.7 -79.69,80.9 -143.36,178.5 -179.29,286.3 -36,108.1 -53.21,245.6 -3,353 4,8.6 8.3,17 13.19,25.2 5.2,8.7 10.98,16.8 17.24,24.3 29.25,34.8 69.62,54.1 117.44,35.4 58.97,-22.9 103.93,-73.2 160.04,-101.8 133.64,-68.3 284.86,-22.2 407.41,47.7 76.84,43.8 148.44,97.1 229.45,133.4 72.46,32.5 151.94,52.1 231,58.8 162.93,13.8 317.44,-26.5 464.64,-94.1 2.5,-1.1 5.07,-1.8 7.66,-2.3 1.5,24 3.49,47.9 5.95,71.9 -248.83,179.6 -601.39,153.1 -857.06,1.4 -135.76,-80.5 -305.39,-210.5 -464.47,-109.6 -60.16,38.1 -113.71,90.3 -186.19,103.9 -66.29,12.4 -131.22,-10.7 -178.77,-57.7 -104.88,-103.6 -114.12,-272.3 -92.14,-409.3 24.12,-150.3 99.26,-290.5 198.7,-404.3 219.49,-251.4 560.61,-354.7 880.82,-396.8 365.48,-48 770.09,7.3 1014.16,307.2 -26.2,24.4 -51.09,50.3 -74.71,77.4"
         style="fill:#731422;fill-opacity:1;fill-rule:nonzero;stroke:none"
         id="path126" /><path
         d="m 3854.33,4056.6 c -2.89,-0.1 -5.84,-0.2 -8.9,-0.7 -46.49,-7 -93.44,-9.9 -140.24,-8.9 -40.59,0.9 -81.06,4.8 -121.04,11.6 -68.33,11.6 -135.19,31.6 -198.68,59.5 -33,14.5 -65.08,31.2 -95.98,49.9 -20.53,12.5 -40.57,25.8 -59.97,40 -79.92,58.7 -149.19,133.7 -202.84,216.9 -26.19,40.7 -49.71,83.6 -68.46,128.3 -19.56,46.5 -51.33,113.5 -36.17,164.6 15.3,51.7 57.27,34.3 93.89,15.6 44.53,-22.8 87.94,-41.8 139.15,-40 96.76,3.4 185.19,64.8 230.42,149 109.46,203.89 -0.88,443.73 -29.42,654.08 -35.5,261.6 -11.77,515.86 24.9,774.45 -21.14,10.41 -41.7,21.85 -61.53,34.53 -81.16,-230.15 -95.42,-491.06 -73.99,-731.67 11.49,-129.06 38.8,-253.68 64.62,-380.31 21.8,-106.89 37.46,-241.18 -38.01,-332.28 -28.59,-34.6 -71.79,-59.5 -116.99,-62 -55.35,-3 -98.02,39.1 -148.82,54.2 -110.47,33 -195.94,-59.8 -193.31,-166.5 2.63,-106.4 62.42,-221.6 118.26,-309.7 56.86,-89.7 128.51,-170 211.89,-235.8 194.92,-153.8 441.74,-219.3 686.47,-193.2 6.82,33.1 14.26,66 22.23,98.6 0.8,3.3 1.71,6.5 2.52,9.8"
         style="fill:#731422;fill-opacity:1;fill-rule:nonzero;stroke:none"
         id="path128" /><path
         d="m 5350.01,3137.1 c 18.72,-26.1 34.53,-54.4 46.84,-84.9 42.64,-6.4 88.1,-4.8 125.89,-1.8 55.44,4.3 110.58,14 163.24,31.5 -6.96,30.1 -12.98,60.4 -17.98,90.9 -52.63,-16.6 -105.04,-30.8 -160.94,-35.1 -51.29,-4 -105.51,3.6 -157.05,-0.6"
         style="fill:#fabedb;fill-opacity:1;fill-rule:nonzero;stroke:none"
         id="path130" /><path
         d="m 4761.12,2899.3 c 26.95,-105 78.56,-207.8 150.65,-290.6 41.24,4.5 82.37,11.8 122.37,22.4 -82.76,83.9 -144.2,180.7 -177.36,294.6 -16.45,56.5 -25.68,114.5 -26.64,173.3 -0.74,45.2 6.84,90.7 8.09,135.9 -28.96,-2.1 -57.77,-5.6 -86.41,-10.5 -11.27,-40.7 -13.96,-85 -14.64,-125.4 -1.12,-66.9 7.32,-134.9 23.94,-199.7"
         style="fill:#fabedb;fill-opacity:1;fill-rule:nonzero;stroke:none"
         id="path132" /><path
         d="m 6115.97,3080.1 c -58.53,5.1 -116.75,17.5 -172.79,35.1 -57.55,18 -111.1,45.9 -167.84,65.4 5.76,-33.5 12.82,-66.8 21.13,-99.9 91.09,-58.6 210.66,-85.3 312.25,-97.2 103.85,-12.3 223.98,-8.4 328.76,24 8.76,37.9 15.61,76.4 21.18,115.1 -53.33,-14.3 -104.7,-31.9 -160.2,-39.1 -60.25,-7.8 -121.99,-8.7 -182.49,-3.4"
         style="fill:#fabedb;fill-opacity:1;fill-rule:nonzero;stroke:none"
         id="path134" /><path
         d="m 5086.97,3559.1 c 3.27,46.5 7.95,92.8 10.82,139.3 2.58,41.5 9.3,87.6 -2.49,127.9 -5.74,19.7 -33.03,23.5 -43.58,5.7 -37.57,-63.4 -39.52,-157.3 -48.64,-229.3 -10.26,-81.1 -17.66,-162.4 -20.08,-244.1 -0.2,-6.7 -0.29,-13.4 -0.43,-20.1 19.35,-2.3 38.73,-5.5 58.13,-9.6 12.24,-2.6 24.38,-5.6 36.41,-9 -0.11,79.8 4.26,159.7 9.86,239.2"
         style="fill:#731422;fill-opacity:1;fill-rule:nonzero;stroke:none"
         id="path136" /><path
         d="m 5739.97,2744 c -13.97,-29.5 -34.97,-55.1 -59.59,-76.4 -46.74,-40.3 -108.32,-64.4 -170.07,-65 -68.44,-0.6 -132.1,22.4 -187.34,59.5 -19.87,-19.7 -42.41,-37.7 -67.5,-53.5 -5.04,-3.1 -10.27,-6 -15.42,-9.1 9.28,-7.2 18.75,-14.2 28.61,-20.8 103.79,-69.5 239.27,-99.1 358.94,-55.1 62.77,23 119.89,60.8 162.02,113.1 16.91,21 35.15,47.3 47.56,75.3 -23.88,33.8 -44.76,70.9 -63.04,109.3 -18.03,-23.5 -21.31,-50.2 -34.17,-77.3"
         style="fill:#731422;fill-opacity:1;fill-rule:nonzero;stroke:none"
         id="path138" /><path
         d="m 5322.97,2662.1 c 88.16,87.7 123.3,211.5 90.57,339.4 -4.48,17.5 -10.1,34.4 -16.69,50.7 -12.31,30.5 -28.12,58.8 -46.84,84.9 -64.65,89.8 -163.9,152.3 -272.9,182.8 -12.03,3.4 -24.17,6.4 -36.41,9 -19.4,4.1 -38.78,7.3 -58.13,9.6 -194,23.7 -385.58,-35.6 -569.07,-96.2 -65.46,-21.6 -37.42,-125.6 28.6,-103.8 101.05,33.4 204.31,67.9 309.72,85.9 28.64,4.9 57.45,8.4 86.41,10.5 34.78,2.5 69.77,2.8 105,0.1 137.85,-10.5 282.16,-73.5 345.38,-203.1 60.76,-124.6 26.29,-261.9 -93.15,-334.1 -49.39,-29.9 -104.19,-51.6 -161.32,-66.7 -40,-10.6 -81.13,-17.9 -122.37,-22.4 -53.58,-5.9 -107.33,-7.1 -158.95,-4.6 -299.18,14.7 -573.1,181.1 -727.78,436.9 -172.06,284.5 -154.06,627.6 -83.71,940.7 39.44,175.6 96.3,347.6 169.35,512 35.86,80.7 75.66,159.7 119.26,236.5 38.61,68 84.53,132.4 121.11,201.3 -20.55,14.8 -40.83,29.9 -60.77,45.4 -51.26,-56 -91.38,-122.9 -130.57,-187.6 -45.66,-75.5 -87.62,-153.2 -125.62,-232.8 -76.45,-160.1 -136.94,-327.8 -179.76,-499.9 -0.81,-3.3 -1.72,-6.5 -2.52,-9.8 -7.97,-32.6 -15.41,-65.5 -22.23,-98.6 -14.51,-70.7 -26.04,-142.5 -33.47,-214.6 -2.46,-24 -4.45,-47.9 -5.95,-71.9 -5.55,-88.5 -4.22,-177 6.3,-264.1 4.39,-36.3 10.42,-72.3 18.17,-107.9 12,-55.2 28.23,-109.4 49.3,-162.4 12.65,-31.8 27.06,-63.1 43.33,-93.9 8.21,-15.5 16.74,-30.9 25.92,-46.1 30.49,-50.5 65.16,-97.7 103.27,-141.5 23.62,-27.1 48.51,-53 74.71,-77.4 175.14,-162.8 404.9,-261.5 649.24,-271.7 159.45,-6.6 339.4,20.8 479.65,102.8 5.15,3.1 10.38,6 15.42,9.1 25.09,15.8 47.63,33.8 67.5,53.5"
         style="fill:#731422;fill-opacity:1;fill-rule:nonzero;stroke:none"
         id="path140" /><path
         d="m 11595.4,6229.1 c 79.6,-130.36 177.8,-248.24 292,-349.73 91.5,-81.39 225.3,-202.78 106.8,-323.15 -118.9,-120.96 -306.5,-54.63 -435.1,12.75 -144.4,75.64 -268.7,180.82 -371.7,306.35 -19.4,-27.77 -44.7,-51.02 -72.9,-70.3 99.2,-124.89 220.5,-230.26 359.6,-309.5 144.4,-82.32 328,-153.77 490.7,-85.91 -2.4,3.43 -4.8,6.89 -7.3,10.3 13.3,4.2 25.9,9.9 36.6,15.66 20.2,10.91 38.6,24.29 53.9,41.51 0.1,0.07 0.2,0.13 0.2,0.2 2.4,-3.36 4.8,-6.78 7.2,-10.15 91.1,83.67 122.5,217.13 52,331.5 -42.6,69.15 -107.1,119.85 -166.5,173.58 -63.1,57.08 -122,119.37 -175.3,185.77 -123.3,153.86 -196.6,328.11 -274,506.8 -17,-22.89 -35.4,-44.74 -55,-65.38 27.5,-130.9 90.1,-257.9 158.8,-370.3"
         style="fill:#731422;fill-opacity:1;fill-rule:nonzero;stroke:none"
         id="path142" /><path
         d="m 11909.5,4654.7 c 135.8,8.2 296.1,30.6 350.3,176.3 48.5,130.5 -13.8,281.09 -67.5,400.09 -37.6,83.12 -83.9,161.91 -136.9,236.04 -2.4,3.37 -4.8,6.79 -7.2,10.15 0,-0.07 -0.1,-0.13 -0.2,-0.2 -15.3,-17.22 -33.7,-30.6 -53.9,-41.51 -10.7,-5.76 -23.3,-11.46 -36.6,-15.66 2.5,-3.41 4.9,-6.87 7.3,-10.3 23.1,-32.02 44.9,-64.98 65.1,-99.02 60,-101.22 118.5,-218.17 135.9,-335.79 8.7,-59.2 2.4,-124.8 -48.6,-163.6 -49.1,-37.3 -119.1,-42.8 -178.2,-47.1 -137.2,-10.2 -275.3,-7.1 -412,8.2 -271.3,30.6 -536.6,113.8 -779.6,237.68 -136.1,69.37 -266,152.06 -384.7,248.3 -112.2,91.07 -222.1,188.75 -275.8,324.87 -22.3,-0.83 -44.6,-1.48 -66.9,-1.87 14.8,-137.56 112.9,-249.42 211.5,-339.9 111.6,-102.31 235.7,-192.11 366,-268.98 261.9,-154.6 555.6,-256 856.8,-298.1 72.1,-10 144.5,-16.9 217.1,-20.5 38.8,-1.9 77.5,-2.9 116.3,-2.8 40.6,0.1 81.2,1.3 121.8,3.7"
         style="fill:#731422;fill-opacity:1;fill-rule:nonzero;stroke:none"
         id="path144" /><path
         d="m 6401.68,4087.1 c 61.01,-238.8 86.85,-485.6 76.9,-731.8 -3.13,-77.5 -8.82,-155.6 -19.92,-232.7 -5.57,-38.7 -12.42,-77.2 -21.18,-115.1 -0.03,-0.2 -0.06,-0.3 -0.1,-0.5 -25.32,-109.6 -70.5,-223.8 -164.74,-292.2 -80.71,-58.5 -190.83,-81 -276.71,-20.6 -89.5,63 -134.89,182.4 -168.66,281.8 -11.74,34.5 -21.95,69.5 -30.8,104.7 -8.31,33.1 -15.37,66.4 -21.13,99.9 -35.1,204.1 -23.03,414.8 35.84,614.8 19.44,66.1 -83.53,94.3 -102.95,28.4 -62.11,-210.6 -75.75,-434.6 -40.23,-651 5,-30.5 11.02,-60.8 17.98,-90.9 5.79,-25 12.02,-49.9 19.16,-74.6 17.35,-60.1 39.89,-124.7 69,-186 18.28,-38.4 39.16,-75.5 63.04,-109.3 78.26,-110.6 188.59,-185.4 344.21,-154 270.61,54.6 355.4,343.6 384.48,581 33.26,271.4 20.44,547.6 -32.62,815.6 -56.08,283.4 -157.27,563.6 -318.5,804.3 -19.36,-11.1 -39.05,-21.7 -58.96,-31.8 101.54,-205.4 189.06,-417.6 245.89,-640"
         style="fill:#731422;fill-opacity:1;fill-rule:nonzero;stroke:none"
         id="path146" /><path
         d="m 11433.8,7375.38 c 68.1,-108.1 101.7,-234.31 91,-361.98 -10.2,-123.33 -68.6,-242.19 -152.1,-332.43 -43.1,-46.61 -92.5,-86.22 -147.9,-117.33 -46,-25.79 -96.6,-36.74 -144.4,-55.45 13.1,-33.06 25.8,-66.28 38.1,-99.67 41.6,8.2 83.9,28.27 119.4,45.19 51.6,24.66 99.2,56.85 143.1,93.5 19.5,16.32 38,33.8 55.6,52.19 19.6,20.64 38,42.49 55,65.38 36,48.54 65.9,101.69 88.6,157.68 88.4,217.38 40.8,461.52 -102.1,643.91 -66.9,85.34 -156.5,159.55 -260.2,194.19 -15.2,-16.59 -30.7,-32.86 -46.5,-48.87 104.1,-59.7 197.4,-132.98 262.4,-236.31"
         style="fill:#731422;fill-opacity:1;fill-rule:nonzero;stroke:none"
         id="path148" /><path
         d="m 8636.04,6475.36 c -4.39,-24.43 -9.81,-47.64 -16.42,-70.01 64.42,-50 138.04,-87.38 217.28,-106.93 6.74,34.27 14.36,68.4 22.68,102.39 -208.27,64.94 -377.62,245.29 -395.32,469.84 -9.3,117.87 24.21,234.31 87.43,333.51 30.6,48.02 68.43,90.29 111.47,127.47 36.95,31.91 78.53,54.74 118.81,80.58 -24.74,18.01 -49.06,36.61 -72.92,55.83 -94.46,-41.06 -176.19,-126.63 -231,-205.79 -78.09,-112.74 -121.15,-254.21 -112,-391.6 10.47,-157.01 86.66,-309.91 201.66,-420.41 6.61,12.92 12.65,25.95 17.87,39.04 12.42,31.18 56.47,19.59 50.46,-13.92"
         style="fill:#731422;fill-opacity:1;fill-rule:nonzero;stroke:none"
         id="path150" /><path
         d="m 4875.82,8181.42 c 77.81,-7.73 153.78,-28.89 226.07,-58.27 69.31,-28.17 137.48,-61.82 212.15,-73.14 73.62,-11.16 143.89,2.33 204.54,46.66 51.8,37.86 100.59,93.12 168.8,58.26 123.59,-63.15 166.92,-247.46 171.52,-373.58 2.66,-72.95 -5,-144.96 -21.1,-215.08 -8.71,-37.91 -19.9,-75.25 -33.28,-111.88 -62.24,-170.39 -171.94,-325.43 -300.78,-449.68 -35.02,-33.78 -71.89,-65.43 -110.31,-94.89 -39.39,-30.19 -80.45,-58.01 -122.9,-83.45 -148.37,-88.89 -313.89,-148.1 -485.75,-173.27 -34.24,-5.02 -68.72,-8.76 -103.37,-11.04 -59.96,-3.94 -118.8,-3.06 -177,1.59 -124.97,9.97 -246.92,37.35 -370.17,72.14 -177.54,50.12 -357.57,107.52 -543.9,83.98 -0.96,-0.12 -1.8,-0.41 -2.7,-0.6 26.91,-19.23 52.13,-40.96 75.39,-63.79 158.44,-15.56 310.21,-67.9 461.73,-115.75 168.31,-53.15 339.94,-87.18 517.14,-83.07 335.33,7.77 658.1,138.26 906.44,363.29 160.21,145.17 293.46,332.05 364.09,538.7 -19.85,12.04 -39.94,23.7 -60.3,34.86 11.94,33.52 23.69,67.23 31.58,101.79 5.91,-0.96 12.01,-2.96 18.17,-6.32 13.77,-7.49 27.42,-15.18 40.96,-23.03 13.78,60.74 22.04,122.76 23.79,185.6 4.28,154.15 -34.85,322.07 -136.06,442.15 -46.75,55.47 -114.87,101.47 -189.78,101.18 -81.41,-0.32 -129.39,-56.46 -192.8,-97.02 -80.35,-51.39 -175.31,-10.66 -254.81,22.34 -86.93,36.09 -171.98,68.25 -265.69,81.9 -188.48,27.45 -384.73,-1.1 -553.68,-90.68 -0.06,-0.04 -0.11,-0.07 -0.17,-0.1 20.09,-28.66 39.79,-57.86 59.04,-87.51 139.07,64.96 289.94,92.93 443.14,77.71"
         style="fill:#731422;fill-opacity:1;fill-rule:nonzero;stroke:none"
         id="path152" /><path
         d="m 3643.62,7246.04 c 20.82,46.26 44.53,91.09 70.94,134.32 12.01,19.65 24.57,38.98 37.71,57.93 1.09,1.57 2.14,3.18 3.24,4.74 21.45,30.6 44.3,60.24 68.48,88.74 18.7,22.02 42.84,42.36 58.28,67.1 -12.92,24.27 -25.52,48.79 -37.8,73.52 -2.37,-0.52 -4.74,-1.21 -7.13,-2.21 -34.41,-14.4 -58.56,-48.91 -82.14,-77.02 -27.04,-32.21 -52.36,-65.83 -75.92,-100.67 -45.29,-67 -84.49,-138.37 -116.42,-212.67 -55.98,-130.26 -99.78,-277.28 -90.39,-420.61 18.7,-6.14 36.92,-13.9 54.61,-22.93 32.47,139.2 57.29,278.06 116.54,409.76"
         style="fill:#731422;fill-opacity:1;fill-rule:nonzero;stroke:none"
         id="path154" /><path
         d="m 10882.7,6266.61 c -69.4,-24.15 -139.9,-45.2 -211.1,-63.21 -140.4,-35.48 -283.6,-59.04 -428,-69.92 -286.94,-21.63 -575.01,0.86 -854.2,71.32 -150.79,38.06 -300.67,88.97 -446.59,142.77 -4.75,-20.43 -9.08,-40.91 -13.04,-61.42 247.63,-142.35 529.6,-214.8 812.57,-248.5 299.66,-35.7 604.46,-19.14 898.66,47.99 81.5,18.59 162.2,41.15 241.5,67.7 38.4,12.87 76.5,26.68 114.3,41.42 23.7,9.23 49.2,17.5 72.2,29.35 -10.8,33.54 -22.3,66.89 -34,100.08 -17.5,-5.54 -34.4,-13.29 -52.5,-20.47 -33,-13.07 -66.3,-25.46 -99.8,-37.11"
         style="fill:#731422;fill-opacity:1;fill-rule:nonzero;stroke:none"
         id="path156" /><path
         d="m 11052.9,5770.45 c 21.2,9.71 42.1,21.2 61.6,34.57 28.2,19.28 53.5,42.53 72.9,70.3 7.3,10.49 13.8,21.6 19.2,33.4 39.9,86.37 15.7,179.4 -10.2,265.93 -23.5,78.75 -49.6,156.72 -77.9,233.87 -12.3,33.39 -25,66.61 -38.1,99.67 -104.7,263.66 -236.8,516.3 -393.5,752.81 -32.3,-15.98 -65.1,-30.99 -98.5,-45.03 182.6,-274.02 332.4,-569.28 442.4,-879.73 1.4,-4 2.8,-8.04 4.2,-12.05 11.7,-33.19 23.2,-66.54 34,-100.08 13.5,-41.24 26.1,-82.73 37.3,-124.51 20.2,-74.75 24.4,-147.95 -42.2,-199.18 -54.8,-42.17 -126.4,-60.76 -191.4,-80.17 -82.6,-24.6 -166.1,-45.87 -250.3,-63.76 -343.1,-72.85 -698.22,-87.48 -1046.51,-46.99 -152.98,17.79 -317.16,39.55 -461.15,97.02 -61.1,24.39 -123.09,60.46 -161.48,115.38 -44.9,64.24 -50.14,143.41 -43.9,219.19 3.98,48.29 11.06,96.74 20.41,145.06 3.96,20.51 8.29,40.99 13.04,61.42 26.08,112.13 63.19,222.78 102.57,327.93 62.52,166.91 144.68,328.29 236.7,481.09 -21.84,6.98 -43.52,14.4 -65.03,22.26 -168.25,-231.21 -289.28,-499.29 -357.47,-778.04 -8.32,-33.99 -15.94,-68.12 -22.68,-102.39 -5.01,-25.53 -9.71,-51.09 -13.84,-76.71 -14.04,-87.14 -16.29,-174.97 5.9,-254.42 40.66,42.81 121.05,-7.77 85.23,-61.91 -10.75,-16.24 -21.94,-32.16 -33.4,-47.87 18.26,-25.6 40.68,-49.45 68.04,-71.05 125.93,-99.44 294.11,-130.14 448.13,-157.02 160.55,-28 322.65,-43.8 484.97,-47.73 35.59,-0.86 71.19,-1.06 106.78,-0.77 10.42,0.09 20.89,0.15 31.29,0.34 22.3,0.39 44.6,1.04 66.9,1.87 147.7,5.59 295.2,20.89 441.4,46.09 175,30.18 362.3,66.85 524.6,141.21"
         style="fill:#731422;fill-opacity:1;fill-rule:nonzero;stroke:none"
         id="path158" /><path
         d="m 11856.9,8685.56 c 46.5,-52.23 51.2,-125.21 27,-188.89 -21.8,-57.3 -66.8,-105.62 -121.9,-132.32 -48.6,-23.56 -95.8,-23.46 -144.6,-18.19 -10.4,-31.46 -21.5,-62.68 -33.5,-93.59 77.8,-22.86 172.2,-3.64 239.3,33.68 80.9,45.01 142.3,128.65 161.2,219.3 19.5,93.64 -6.9,191.82 -81.5,254.41 -52.4,43.92 -128.4,67.49 -194.3,49.66 -1.6,-22.42 -3.5,-44.81 -5.8,-67.16 57.3,-1.85 112.2,-9.84 154.1,-56.9"
         style="fill:#731422;fill-opacity:1;fill-rule:nonzero;stroke:none"
         id="path160" /><path
         d="m 8089.4,8247.99 c -24.2,-4.71 -49.44,-2.62 -72.92,4.62 -56.06,17.31 -93.51,65.64 -109.95,120.44 -16.32,54.42 -16.7,118.62 4.33,171.99 24.4,61.93 68.31,72 126.68,69.49 -3.79,25.94 -6.92,51.98 -9.44,78.13 -58.89,23.4 -139.37,-19.48 -174.37,-66.79 -54.51,-73.68 -62.36,-178.16 -41.98,-265.21 20.28,-86.62 77.21,-162.66 160.82,-196.01 52.4,-20.89 140.02,-27.51 194.48,5.86 -13.49,30.41 -26.14,61.18 -37.89,92.27 -12.57,-5.75 -24.96,-11.92 -39.76,-14.79"
         style="fill:#731422;fill-opacity:1;fill-rule:nonzero;stroke:none"
         id="path162" /><path
         d="m 4336.8,7421 c -51.65,-5.36 -104.24,-4.49 -154.97,3.41 -38.74,6.04 -78.22,22.27 -117.72,26.8 25.23,-37.45 50.13,-70.87 74.67,-100.2 11.01,-2.65 21.75,-4.93 31.76,-6.94 57.19,-11.45 117.02,-14.83 175.86,-9.12 92.68,9 198.81,36.53 280.93,90.53 0.63,30.42 -2.85,64.07 -10.55,101.01 -42.65,-24.37 -82.08,-51.46 -128.74,-69.09 -48.52,-18.33 -99.99,-31.07 -151.24,-36.4"
         style="fill:#731422;fill-opacity:1;fill-rule:nonzero;stroke:none"
         id="path164" /><path
         d="m 4004.24,7761.1 c -37.92,4.25 -82.52,20.08 -123.91,23.99 14.28,-31.01 29.09,-61.85 44.49,-92.36 18.35,-5.08 36.52,-9.16 52.53,-12.81 65.75,-15.01 134,-20.84 201.38,-16.94 123.96,7.19 244.85,39.84 354.17,98.28 -13.2,28.07 -27.69,57.09 -43.63,87.19 -97.24,-52.61 -204.31,-85.18 -315.12,-91.97 -56.84,-3.47 -113.34,-1.71 -169.91,4.62"
         style="fill:#731422;fill-opacity:1;fill-rule:nonzero;stroke:none"
         id="path166" /><path
         d="m 3963.19,8203.85 c -49.76,-5.08 -98.36,-3.51 -147.77,4.04 -29.97,4.58 -62.78,17.53 -94.38,22.27 7.37,-29.95 15.77,-60.58 24.99,-91.65 20.9,-6.85 41.98,-11.67 58.77,-15.39 54.77,-12.15 114.19,-14.76 169.91,-9.05 56.66,5.79 113.15,18.95 165.9,40.56 36.31,14.88 81.81,33.93 115.32,61.01 -19.54,26.07 -39.3,51.49 -59.24,76.14 -27.78,-16.89 -54.4,-36.38 -84.62,-49.27 -47.37,-20.2 -97.66,-33.42 -148.88,-38.66"
         style="fill:#731422;fill-opacity:1;fill-rule:nonzero;stroke:none"
         id="path168" /><path
         d="m 9217.05,7178.85 c 21.51,-7.86 43.19,-15.28 65.03,-22.26 3.42,-1.09 6.82,-2.25 10.24,-3.32 391.94,-122.54 828.18,-110.07 1213.68,30.27 27.8,10.11 55.3,20.99 82.4,32.43 33.4,14.04 66.2,29.05 98.5,45.03 180.5,89.25 343.9,208.01 484.5,350.69 15.8,16.01 31.3,32.28 46.5,48.87 74.1,80.92 141.3,168.75 200.5,262.68 65.8,104.44 121.2,214.87 165.5,329.33 12,30.91 23.1,62.13 33.5,93.59 42.4,128.69 71.1,261.65 85.4,396.3 2.3,22.35 4.2,44.74 5.8,67.16 8.4,120.15 5.2,241.25 -10.1,361.51 -8.1,-2.43 -16.3,-4.78 -24.4,-6.95 -26.4,-7.04 -53.1,-12.88 -79.9,-17.74 94.7,-738.86 -321.3,-1501.8 -1000,-1811.51 -352.3,-160.74 -761.09,-200.67 -1138.42,-115.85 -367.77,82.68 -692.58,284.26 -935.15,572.16 -263.5,312.74 -413.96,713.02 -440.67,1119.88 -19.2,2.97 -38.26,6.78 -57.04,11.46 -3.99,-77.13 -2.14,-153.92 5.18,-229.92 2.52,-26.15 5.65,-52.19 9.44,-78.13 17.58,-120.3 48.67,-238.16 91.62,-351.75 11.75,-31.09 24.4,-61.86 37.89,-92.27 120.66,-271.9 309.45,-515.12 542,-702.47 23.86,-19.22 48.18,-37.82 72.92,-55.83 133.76,-97.37 280.17,-176.7 435.08,-233.36"
         style="fill:#731422;fill-opacity:1;fill-rule:nonzero;stroke:none"
         id="path170" /><path
         d="m 3730.73,8636.15 c 7.82,4.29 17.71,6.67 29.69,6.67 53.78,0 149.5,-47.81 286.87,-184.28 49.78,-49.45 100.05,-105.77 149.4,-166.76 19.94,-24.65 39.7,-50.07 59.24,-76.14 77.77,-103.8 151.64,-217.82 215.49,-334.05 h 0.01 c 6.15,-11.2 12.05,-22.21 17.84,-33.14 15.94,-30.1 30.43,-59.12 43.63,-87.19 41.73,-88.69 69.79,-167.14 83.88,-234.77 7.7,-36.94 11.18,-70.59 10.55,-101.01 -0.08,-4.25 -0.08,-8.57 -0.33,-12.68 -5.1,-83.99 -43.87,-143.1 -122.04,-186.04 -78.16,-42.96 -148.86,-43.97 -222.48,-3.2 -46.23,25.58 -94.24,68.34 -143.7,127.45 -24.54,29.33 -49.44,62.75 -74.67,100.2 -30.82,45.76 -62.11,97.36 -93.82,155.08 -15.61,28.42 -30.77,57.28 -45.47,86.44 -15.4,30.51 -30.21,61.35 -44.49,92.36 -54.5,118.36 -100.39,239.06 -134.3,353.42 -9.22,31.07 -17.62,61.7 -24.99,91.65 -3.62,14.66 -7.06,29.22 -10.2,43.56 -50.74,231.29 -22.99,338.87 19.89,362.43 z m 168.54,-1068.86 c 119.09,-216.79 231.6,-352.42 343.97,-414.62 48.56,-26.89 96.97,-40.33 145.93,-40.33 50.78,0 102.14,14.47 154.8,43.4 8.6,4.72 16.72,9.69 24.63,14.77 24.09,15.47 45,32.61 62.79,51.49 46.66,49.52 71.94,110.99 76.48,185.91 4.35,71.72 -10.71,155.83 -45.63,253.95 -10.12,28.41 -22.06,58.12 -35.53,88.93 -23.15,52.98 -51.1,109.42 -84.27,169.81 -34.06,62 -70.98,123.38 -109.76,183.11 -19.25,29.65 -38.95,58.85 -59.04,87.51 -85.79,122.35 -178.25,234.42 -269.25,324.8 -123.56,122.75 -295.46,255.57 -412.67,191.14 -117.23,-64.39 -97.34,-280.69 -60.02,-450.8 39.68,-180.87 115.71,-388.5 212.77,-583.97 12.28,-24.73 24.88,-49.25 37.8,-73.52 5.63,-10.56 11.26,-21.13 17,-31.58"
         style="fill:#731422;fill-opacity:1;fill-rule:nonzero;stroke:none"
         id="path172" /><path
         d="m 8236.68,8903.09 c 181.63,7.71 362.39,62.89 527.37,136.72 341.66,152.89 626.78,422.41 797.76,755.43 50.89,99.14 96.43,207.76 128.8,319.46 33.51,-111.3 89.86,-217.82 152.15,-308.46 120.15,-174.79 281.74,-315.21 466.44,-418.57 199.7,-111.78 422.9,-179.03 647.6,-218.14 207.5,-36.14 427.9,-61.1 637.4,-23.09 26.8,4.86 53.5,10.7 79.9,17.74 8.1,2.17 16.3,4.52 24.4,6.95 208.1,62.44 394.2,208.56 462.5,420.26 10,31.1 -17.6,70.61 -51.6,67.7 -287.3,-24.57 -581.2,68.28 -795,263.9 -102.1,93.41 -183.5,206.51 -242.1,331.71 -60.7,129.7 -81.5,264.7 -102.2,404.8 -8.3,56.4 -91.9,38.5 -94.9,-12.9 -8.6,-149.2 40.1,-305.2 101.9,-439.4 63.1,-137.2 154.7,-263.3 266.9,-364.58 212.9,-192.16 497.5,-297.75 783.4,-294.4 -73.6,-138.83 -216.1,-233.51 -366.1,-276.49 -208.2,-59.65 -434.6,-38.37 -645.4,-4.07 -398.2,64.79 -795.6,221.31 -1056.94,540.93 -67.4,82.43 -123.91,175.79 -164.51,274.31 -29.02,70.4 -47.87,142 -64.27,215 5.04,36.7 8.36,73.4 9.42,109.8 1.66,57.2 -91.88,72.4 -101.96,13.8 -29.67,-172.4 -60.45,-337.9 -133.23,-498.78 -71.23,-157.5 -166.85,-303.87 -285.37,-429.87 -231.87,-246.51 -547.18,-419.18 -882.23,-472.77 -87.1,-13.93 -179.95,-18.63 -267.18,-3.53 -88.48,15.33 -163.97,49.13 -239.27,96.93 -25.63,16.27 -62.16,-17.24 -43.31,-43.3 57.1,-78.95 142.86,-124.37 235.87,-147.6 18.78,-4.68 37.84,-8.49 57.04,-11.46 52.55,-8.14 106,-10.19 156.72,-8.03"
         style="fill:#731422;fill-opacity:1;fill-rule:nonzero;stroke:none"
         id="path174" /><path
         d="m 8638.82,12146.6 c 12.44,8.4 28.66,11.8 42.48,9 171.64,-35 341.08,-81.7 503.64,-138.7 46.04,-16.1 100.32,-7.2 138.35,22.5 134.47,105.5 278.75,203.8 428.9,292.2 15.28,9.1 41.01,8.6 55.11,-1.2 144.05,-98.5 281.4,-206.6 408.3,-321.1 39.3,-35.5 99.3,-45.8 149.3,-25.8 165.8,66.8 339.6,122.6 516.7,165.8 13.5,3.4 29.9,0.3 42.8,-8.1 8.1,-5.2 11.9,-10.7 12.7,-13 l -281.3,-968.2 c -1.9,-6.4 -9.4,-10 -16.7,-8 -560.1,151.1 -1152.28,151.1 -1712.43,0 -7.33,-2 -14.79,1.6 -16.63,7.9 L 8627,12134.1 c 0.77,2.2 4.3,7.4 11.82,12.5 z m 176.17,-1014.5 c 16.95,-57.6 78.57,-91.6 137.46,-75.7 543.28,146.5 1117.55,146.5 1660.85,0 v 0 c 9.8,-2.7 19.7,-3.9 29.4,-3.9 48.7,0 94,31.6 108.1,79.7 l 64.3,221.2 17.5,60.3 199.6,687 c 4.7,15.7 5.1,31.9 1.7,47.6 -8,-0.9 -16,-1.4 -24,-1.4 -38.5,0 -76.5,10.1 -110.7,29.8 -27.8,16.1 -50.8,37.4 -68.6,61.9 -172.1,-43.4 -341.1,-98.1 -502.6,-163.2 -14.7,-5.9 -35,-2.6 -46.1,7.4 -122.8,110.9 -255.2,215.7 -393.71,312 -31.35,-17 -67.22,-26.6 -105.31,-26.6 -40.72,0 -78.9,11.1 -111.75,30.3 -142.8,-85.8 -280.27,-180.2 -408.91,-281.1 -11.53,-9.1 -30.3,-12 -44.55,-7 -166.74,58.5 -340.55,106.3 -516.53,142.2 -1.17,0.3 -2.35,0.4 -3.53,0.6 -33.98,-61.6 -96.39,-105.5 -169.46,-113.8 -0.61,-10.8 0.41,-21.8 3.61,-32.4 l 220.56,-759.2 21.78,-75 40.89,-140.7"
         style="fill:#731422;fill-opacity:1;fill-rule:nonzero;stroke:none"
         id="path176" /><path
         d="m 8361.88,12360.1 c 0,77.8 63.29,141 141.08,141 77.79,0 141.07,-63.2 141.07,-141 0,-77.8 -63.28,-141.1 -141.07,-141.1 -77.79,0 -141.08,63.3 -141.08,141.1 z m 335.73,-106.9 c 17.48,31.7 27.45,68.2 27.45,106.9 0,122.4 -99.63,222.1 -222.1,222.1 -122.47,0 -222.11,-99.7 -222.11,-222.1 0,-122.5 99.64,-222.1 222.11,-222.1 8.52,0 16.91,0.5 25.19,1.4 73.07,8.3 135.48,52.2 169.46,113.8"
         style="fill:#731422;fill-opacity:1;fill-rule:nonzero;stroke:none"
         id="path178" /><path
         d="m 9782.88,12731.4 c 77.79,0 141.08,-63.3 141.08,-141.1 0,-77.8 -63.29,-141.1 -141.08,-141.1 -77.78,0 -141.06,63.3 -141.06,141.1 0,77.8 63.28,141.1 141.06,141.1 z m 105.31,-336.6 c 69.49,37.6 116.81,111.1 116.81,195.5 0,122.5 -99.65,222.1 -222.12,222.1 -122.46,0 -222.09,-99.6 -222.09,-222.1 0,-81.7 44.42,-153.3 110.34,-191.8 32.85,-19.2 71.03,-30.3 111.75,-30.3 38.09,0 73.96,9.6 105.31,26.6"
         style="fill:#731422;fill-opacity:1;fill-rule:nonzero;stroke:none"
         id="path180" /><path
         d="m 10888.1,12439.6 c 18.8,32.6 49.3,56 85.7,65.7 12.1,3.3 24.4,4.9 36.7,4.9 24.4,0 48.6,-6.4 70.3,-19 32.6,-18.8 56,-49.2 65.7,-85.6 9.8,-36.4 4.8,-74.4 -14.1,-107.1 -18.8,-32.6 -49.2,-55.9 -85.6,-65.7 -36.4,-9.8 -74.4,-4.7 -107.1,14.1 -67.3,38.9 -90.5,125.3 -51.6,192.7 z m 11.1,-262.9 c 34.2,-19.7 72.2,-29.8 110.7,-29.8 8,0 16,0.5 24,1.4 11.3,1.2 22.7,3.2 33.9,6.2 57.3,15.4 105.1,52.1 134.8,103.5 29.7,51.4 37.5,111.3 22.2,168.6 -15.4,57.3 -52.1,105.2 -103.5,134.8 -51.3,29.7 -111.2,37.6 -168.5,22.2 -57.3,-15.4 -105.2,-52.1 -134.9,-103.5 -45.1,-78.2 -37.1,-172.7 12.7,-241.5 17.8,-24.5 40.8,-45.8 68.6,-61.9"
         style="fill:#731422;fill-opacity:1;fill-rule:nonzero;stroke:none"
         id="path182" /><path
         d="m 5942.84,7545.85 c -13.54,7.85 -27.19,15.54 -40.96,23.03 -6.16,3.36 -12.26,5.36 -18.17,6.32 -7.89,-34.56 -19.64,-68.27 -31.58,-101.79 20.36,-11.16 40.45,-22.82 60.3,-34.86 349,-211.55 618.23,-555.17 751.1,-941.03 11.52,-33.46 22,-67.25 31.43,-101.28 91.57,-330.37 83.1,-685.09 -59.26,-1010.55 -83.7,-191.33 -213.47,-362.71 -386.01,-482.19 -173.67,-120.3 -379.06,-190.7 -588.1,-216.4 -281.17,-34.5 -568.09,6.6 -832.19,107.6 -25.8,9.9 -51.37,20.3 -76.7,31.3 -119.83,52 -234.22,116.5 -340.26,191.99 -403.24,287.25 -670.24,743.91 -739.59,1232.39 -2.4,16.89 -19.95,30.86 -35.23,35.24 -164.56,47.12 -398.04,117.09 -406.94,324.43 -3.45,80.51 38.66,156.96 124.38,169.06 96.08,13.56 202.99,-49.35 271.83,-110.38 34.77,-30.82 83.99,17.38 51.32,51.33 -4.95,5.16 -10.03,10.26 -15.18,15.32 -23.26,22.83 -48.48,44.56 -75.39,63.79 -19.36,13.84 -39.58,26.39 -60.56,37.11 -17.69,9.03 -35.91,16.79 -54.61,22.93 -41.3,13.58 -84.91,19.35 -130.13,13.92 -115.4,-13.87 -195.19,-105.7 -207.88,-218.54 -12.47,-110.93 34.5,-222.31 116.17,-296.8 21.55,-19.64 44.65,-36.88 68.83,-52.33 19.83,-12.68 40.39,-24.12 61.53,-34.53 59.97,-29.56 124.36,-51.1 188.46,-70.36 3.34,-1.01 6.67,-2.02 10,-3.01 23.59,-155.41 66.61,-307.6 127.12,-452.43 75.36,-180.35 177.92,-349.23 303.82,-498.78 22.64,-26.89 46,-53.18 70.13,-78.76 47.53,-50.41 97.87,-98.24 150.94,-143.07 19.27,-16.27 38.92,-32.12 58.82,-47.62 19.94,-15.5 40.22,-30.6 60.77,-45.4 338.31,-242.8 756.2,-377.7 1173.33,-362.6 221.78,8 439.16,60.5 631.41,158.2 19.91,10.1 39.6,20.7 58.96,31.8 179.98,103.2 334.55,248.62 444.97,437.19 223,380.87 251.78,855.72 126.42,1273.72 -134.22,447.52 -438.67,841.53 -843.3,1076.04"
         style="fill:#731422;fill-opacity:1;fill-rule:nonzero;stroke:none"
         id="path184" /><path
         d="m 8208.71,5390.64 c 108.63,24.18 214.9,76.88 304.23,130.08 144.42,86.03 269.09,201.33 367.85,336.79 11.46,15.71 22.65,31.63 33.4,47.87 35.82,54.14 -44.57,104.72 -85.23,61.91 -2.34,-2.46 -4.57,-5.15 -6.6,-8.24 -80.2,-121.21 -183.52,-227.15 -303.79,-309.01 -122.94,-83.68 -283.56,-168.87 -435.93,-167.17 -66.43,0.73 -138.67,26.45 -174.48,86.09 -40.92,68.16 -5.2,151.11 43.9,204.38 54.01,58.59 124.33,99.97 190.62,143.01 70.43,45.72 141.19,91.06 207.66,142.49 69.34,53.63 133.56,112.29 186.43,182.52 39.51,52.49 65.47,105.23 82.85,163.99 6.61,22.37 12.03,45.58 16.42,70.01 6.01,33.51 -38.04,45.1 -50.46,13.92 -5.22,-13.09 -11.26,-26.12 -17.87,-39.04 -34.24,-67.04 -85.36,-131.15 -135.2,-183.75 -63.66,-67.16 -135.9,-123.24 -212.16,-175.37 -141.15,-96.48 -339.7,-180.77 -411.18,-347.18 -68.55,-159.58 29.87,-322.47 195.64,-358.15 21.38,-4.61 43.04,-7.31 64.86,-8.38 46.02,-2.23 92.74,2.92 139.04,13.23"
         style="fill:#731422;fill-opacity:1;fill-rule:nonzero;stroke:none"
         id="path186" /><path
         d="m 9845.06,6723.99 c 15.85,22.15 35.25,43.29 56.19,61.58 18.97,-22.63 38.42,-44.73 58.85,-65.44 32.28,-32.75 80.3,16.3 50.1,50.12 -16.23,18.2 -33.54,35.73 -51.3,52.93 16.66,8.35 33.16,16.76 46,29.22 19.3,18.84 4.9,54.16 -22.27,53.67 -26.68,-0.47 -53.23,-15.88 -76.31,-33.58 -20.61,18.9 -41.24,37.67 -61.16,56.69 -22.53,21.51 -53.24,-10.51 -33.72,-33.72 17.02,-20.24 33.77,-41.12 50.62,-62.01 -24.3,-25.04 -42.77,-53.36 -57.45,-85.81 -12.42,-27.48 22.76,-48.37 40.45,-23.65"
         style="fill:#731422;fill-opacity:1;fill-rule:nonzero;stroke:none"
         id="path188" /><path
         d="m 9892.2,6544.16 c -25.44,15.55 -48.35,-18.61 -30.43,-39.43 20.91,-24.3 43.6,-48.53 67.27,-71.97 -19.69,-19.48 -38.96,-39.36 -57.94,-59.62 -17.7,-18.9 5.31,-52.28 28.64,-37.12 25.99,16.89 51.55,34.22 76.7,52.21 16.72,-14.87 33.66,-29.2 50.76,-42.57 38.6,-30.24 93.4,20.36 55.4,55.41 -12.8,11.78 -26.2,23.43 -39.9,34.91 24.7,17.34 50,37.02 60.5,61.18 11,25.39 -7,54.28 -36.5,47.42 -32.4,-7.57 -59.9,-36.27 -84.73,-60.96 -29.47,21.71 -59.74,42.17 -89.77,60.54"
         style="fill:#731422;fill-opacity:1;fill-rule:nonzero;stroke:none"
         id="path190" /><path
         d="m 5796.37,6391.89 c 26.46,-18.55 57.15,17.59 32.16,39.12 -99,85.26 -79.57,254.72 41.78,307.64 51.02,22.26 107.27,14.89 154.78,-12.54 56.33,-32.51 75.49,-82.2 107.26,-134.61 23.75,-39.15 84.35,-10.89 79.96,30.82 -4.97,47.26 -33.03,91.82 -69.22,127.83 19.11,12.09 37.96,24.47 56.31,38.47 42.37,32.37 -11.87,93.21 -50.93,54.19 -17.84,-17.8 -33.81,-36.48 -49.61,-55.46 -13.64,9.66 -27.55,18.12 -41.18,25.03 -14.42,7.34 -29.38,13.27 -44.64,17.84 10.95,19.49 17.6,42.55 24.71,62.32 17.29,48.08 -53.91,70.46 -67.2,20.33 -6.01,-22.69 -14.57,-47.86 -15.32,-72.25 -30.81,2.04 -61.82,-1.51 -91.52,-10.7 1.58,8.43 2.89,16.93 4,25.53 2.95,22.67 7.05,40.96 -11.15,58.38 -11.66,11.17 -29.16,6.07 -39.21,-3.82 -15.92,-15.69 -9.48,-36.66 -6.69,-56.32 2.04,-14.35 4.53,-28.61 8.28,-42.59 -0.56,-0.3 -1.14,-0.54 -1.7,-0.86 -72.27,-40.02 -125.02,-113.72 -130.85,-197.24 -6.45,-92.32 35.75,-169.1 109.98,-221.11"
         style="fill:#731422;fill-opacity:1;fill-rule:nonzero;stroke:none"
         id="path192" /><path
         d="m 4887.82,6088.79 c -83.1,10.12 -165.47,-27.72 -218.48,-91.07 -0.41,-0.49 -0.76,-1.02 -1.17,-1.51 -13,6.33 -26.53,11.49 -40.24,16.21 -18.78,6.47 -38.14,16.76 -56.56,4.1 -11.62,-7.97 -19.94,-24.2 -11.19,-37.77 13.66,-21.17 32.39,-20.6 55.21,-22.02 8.66,-0.53 17.24,-0.86 25.82,-0.9 -14.66,-27.43 -24.02,-57.21 -27.86,-87.84 -24.09,3.9 -50.43,0.26 -73.84,-1.34 -51.75,-3.53 -43.27,-77.69 7.21,-69.83 20.75,3.23 44.66,5.39 65.88,12.44 1.58,-15.85 4.57,-31.66 9.04,-47.22 4.2,-14.69 9.87,-29.95 16.77,-45.16 -21.63,-11.93 -43,-24.07 -63.87,-38.2 -45.71,-30.95 3.74,-95.75 43.55,-60.28 17.23,15.35 32.96,31.52 48.46,47.98 28.48,-42.36 66.92,-78.36 112.37,-92.21 40.13,-12.22 79.36,41.93 45.43,72.67 -45.42,41.14 -90.59,69.37 -111.82,130.85 -17.91,51.84 -14.48,108.47 17.04,154.34 74.98,109.11 245.04,96.06 309.99,-17.32 16.39,-28.62 57.7,-5.33 44.51,24.16 -37,82.73 -104.38,138.74 -196.25,149.92"
         style="fill:#731422;fill-opacity:1;fill-rule:nonzero;stroke:none"
         id="path194" /><path
         d="m 5834.78,5845.03 c -20.93,17.2 -48.43,18.33 -61.42,2.52 -12.99,-15.81 -6.55,-42.57 14.39,-59.77 20.93,-17.2 48.44,-18.34 61.42,-2.53 12.99,15.82 6.55,42.57 -14.39,59.78"
         style="fill:#731422;fill-opacity:1;fill-rule:nonzero;stroke:none"
         id="path196" /><path
         d="m 5949.13,5880.94 c 12.98,15.8 6.54,42.57 -14.39,59.76 -20.94,17.21 -48.44,18.33 -61.43,2.53 -12.99,-15.81 -6.55,-42.57 14.39,-59.77 20.93,-17.2 48.44,-18.33 61.43,-2.52"
         style="fill:#731422;fill-opacity:1;fill-rule:nonzero;stroke:none"
         id="path198" /><path
         d="m 6157.27,5717.26 c 56.85,-54.76 66.19,-143.13 4.57,-199.15 -61.25,-55.69 -149.53,-38.57 -197.54,24.08 -31.74,41.41 -93.42,-11.14 -61.76,-52.45 74.55,-97.27 218.65,-116.62 311.74,-33.39 92.57,82.75 93.79,227.6 4.75,313.36 -37.19,35.83 -99.34,-16.25 -61.76,-52.45"
         style="fill:#731422;fill-opacity:1;fill-rule:nonzero;stroke:none"
         id="path200" /><path
         d="m 9666.71,11793.6 c 43.96,-27.5 67.33,-81.1 89.2,-125.8 19.78,-40.4 74.53,-15.3 74.44,22.3 3.66,4.2 6.62,9.5 8.49,16 13.03,45.3 41.59,101.8 97.1,99 71.86,-3.7 44.06,-92.7 22.39,-131 -28.59,-50.6 -64.6,-98.3 -101.5,-143 -16.09,-19.5 -32.37,-39.7 -50.61,-57.3 -25.94,-24.9 -43.4,-26.2 -71.86,-4.4 -40.51,31.1 -76.48,73.4 -105.62,115 -30.85,44.1 -70.2,101.6 -71.48,157.1 -1.49,65.1 59.92,83 109.45,52.1 z m 61.44,-415 c 62.29,-24.6 113.76,12.9 154.06,57.9 50.85,56.8 98.32,118.6 138.19,183.6 34.7,56.5 60,125.3 31.5,189.9 -26.8,61.1 -94.41,88.1 -157.84,71.3 -52.35,-13.8 -88.44,-52.5 -111.83,-98.6 -55.36,78.4 -138.15,144.7 -235.78,91 -143.32,-78.8 -35.76,-269 33.45,-358.7 38.06,-49.4 88.55,-112.8 148.25,-136.4"
         style="fill:#731422;fill-opacity:1;fill-rule:nonzero;stroke:none"
         id="path202" /><path
         d="m 9553.55,8246.92 c 17.42,-3.97 33.16,5.26 38.77,22.01 l 9.23,27.57 c 5.24,15.64 -6.03,35.12 -22.01,38.76 -17.41,3.96 -33.15,-5.26 -38.76,-22.01 l -9.23,-27.57 c -5.24,-15.64 6.04,-35.12 22,-38.76"
         style="fill:#731422;fill-opacity:1;fill-rule:nonzero;stroke:none"
         id="path204" /><path
         d="m 10480.5,9046.98 c 61.5,79.11 172.3,66.73 213.2,-24.88 16.5,-36.96 70.8,-4.95 54.4,31.81 -56.4,126.3 -227.2,146.96 -312.1,37.63 -24.6,-31.65 19.7,-76.56 44.5,-44.56"
         style="fill:#731422;fill-opacity:1;fill-rule:nonzero;stroke:none"
         id="path206" /><path
         d="m 8709.72,8872.48 c 20.88,67.85 105.97,79.27 143.81,19.1 21.54,-34.25 76.09,-2.65 54.42,31.81 -66.86,106.31 -222.05,85.93 -259,-34.16 -11.96,-38.84 48.85,-55.46 60.77,-16.75"
         style="fill:#731422;fill-opacity:1;fill-rule:nonzero;stroke:none"
         id="path208" /><path
         d="m 9024.68,10444.1 c -16.91,-54 -13.76,-112.3 -24.72,-167.8 -11.33,-57.2 -27.51,-113.9 -51.11,-167.4 -45.95,-104.1 -115.46,-197.88 -203.88,-269.74 -194.84,-158.36 -438.92,-174.45 -676.83,-135.74 -19.63,3.2 -35.28,-23.99 -14.62,-34.7 232.37,-120.64 541.31,-49.7 739.62,105.25 102.23,79.86 182.75,186.03 234.26,304.93 45.83,105.8 94.18,259.5 46.64,371.7 -9.68,22.8 -43.13,13.5 -49.36,-6.5"
         style="fill:#731422;fill-opacity:1;fill-rule:nonzero;stroke:none"
         id="path210" /><path
         d="m 11041.3,8654.44 c -15.4,-15.39 -14.3,-34.21 -28,-48.19 -10.2,-10.39 -21.6,-11.38 -34,-14.11 -17.8,21.98 -37.6,41.8 -59.3,59.75 16.2,5.68 30.9,16.17 41.9,29.55 21.7,26.23 40.1,65.67 14.5,95.14 -11.9,13.68 -34,11.3 -46.2,0 -15.7,-14.51 -12.4,-35.77 -23,-52.88 -9.2,-14.81 -23.2,-23.44 -36,-34.52 -0.5,-0.41 -0.9,-0.88 -1.3,-1.33 -21.1,12.77 -43.5,23.67 -66.8,32.49 8.1,9.83 14.3,21.03 18.8,34.9 8.1,25.52 9.1,55.07 -3.8,79 -15.9,29.21 -64,16.23 -62.9,-17.03 0.4,-15.43 5.2,-30.24 3.2,-45.81 -1.4,-11.26 -5.1,-23.78 -10,-34.64 -36.2,8.14 -73.4,11.22 -110,8.28 -86.4,-6.94 -167.4,-43.59 -231.6,-101.47 -60.4,-54.38 -122.5,-143.9 -114.1,-229.43 2.4,-24.35 35.4,-38.02 49.2,-13.31 34.1,61.42 56.8,121.27 110.1,170.37 52.1,47.91 121.6,80.99 192.8,84.07 69,2.99 136.4,-19.24 192.5,-59.06 27.8,-19.69 53.1,-44.51 72.8,-72.24 20.6,-28.87 29.8,-66.36 54.8,-91.11 29,-28.59 72.1,-5.71 75.3,31.18 2,22.65 -6.5,46.08 -18.7,67.91 12.7,3.01 24.9,8.3 34.8,14.75 28.7,18.66 63.6,66.87 38.5,100.84 -12.8,17.36 -36.7,23.8 -53.5,6.9"
         style="fill:#731422;fill-opacity:1;fill-rule:nonzero;stroke:none"
         id="path212" /><path
         d="m 9072.29,8575.32 c -78.5,36.22 -166.72,47.2 -251.3,28.2 -35.81,-8.04 -70.43,-22.03 -102.59,-40.54 -7.96,8.9 -15.14,19.78 -19.85,30.12 -6.5,14.28 -6.37,29.83 -10.48,44.7 -8.88,32.07 -58.64,30.21 -65.12,-2.38 -5.31,-26.71 4.44,-54.62 19.78,-76.58 8.35,-11.94 17.61,-20.79 28.29,-27.77 -19.6,-15.32 -37.78,-32.38 -54.12,-50.82 -0.54,0.3 -1.06,0.63 -1.64,0.88 -15.58,6.76 -31.47,10.86 -44.62,22.28 -15.2,13.21 -18.37,34.48 -37.69,43.68 -15.04,7.16 -36.79,2.9 -44.1,-13.7 -15.73,-35.74 13.52,-67.96 42.02,-86.58 14.52,-9.49 31.64,-15.16 48.79,-15.79 -15.33,-23.56 -28.4,-48.37 -38.88,-74.64 -12.66,-1.07 -23.86,-3.51 -36.66,3.39 -17.24,9.28 -21.8,27.58 -41,37.74 -21.09,11.14 -42.06,-2.12 -49.13,-22.49 -13.83,-39.87 33.75,-75.57 66.71,-84.88 11.38,-3.21 24.56,-4.66 37.58,-3.77 -5.1,-24.44 -6.31,-49.34 2.3,-70.39 14.01,-34.28 61.98,-43.34 81.14,-7.45 16.59,31.07 14.21,69.58 25.31,103.26 10.67,32.36 27.41,63.54 48.11,90.58 41.82,54.69 99.55,95.9 166.38,113.52 68.92,18.18 145.07,7.2 208.99,-23.12 65.5,-31.07 104.91,-81.5 155.74,-130.03 20.45,-19.51 47.94,3.33 42.99,27.29 -17.36,84.17 -103.2,151.25 -176.95,185.29"
         style="fill:#731422;fill-opacity:1;fill-rule:nonzero;stroke:none"
         id="path214" /><path
         d="m 9844.98,8053.63 c -10.72,-70.62 -58.92,-140.64 -139.92,-131.22 -34.95,4.07 -66.79,23.63 -89.87,49.67 -18.52,20.87 -25.84,61.48 -51.8,72.52 -7.08,3.01 -12.97,2.46 -18.93,-2.44 -35.5,-29.26 4.05,-96.34 26.27,-123.17 33.69,-40.63 82.79,-66.74 135.43,-71.09 107.64,-8.89 215.32,86.08 214.26,195.52 -0.41,41.57 -68.73,54.37 -75.44,10.21"
         style="fill:#731422;fill-opacity:1;fill-rule:nonzero;stroke:none"
         id="path216" /><path
         d="m 6635.15,6298.42 c 0,-150.74 -122.2,-272.95 -272.94,-272.95 -150.74,0 -272.94,122.21 -272.94,272.95 0,150.74 122.2,272.94 272.94,272.94 150.74,0 272.94,-122.2 272.94,-272.94"
         style="fill:#fabedb;fill-opacity:1;fill-rule:nonzero;stroke:none"
         id="path218" /><path
         d="m 5359.57,5219.46 c 0,-150.74 -122.2,-272.96 -272.94,-272.96 -150.74,0 -272.94,122.22 -272.94,272.96 0,150.75 122.2,272.95 272.94,272.95 150.74,0 272.94,-122.2 272.94,-272.95"
         style="fill:#fabedb;fill-opacity:1;fill-rule:nonzero;stroke:none"
         id="path220" /><path
         d="m 11148.6,8017.28 c 0,-176.12 -142.7,-318.9 -318.9,-318.9 -176.1,0 -318.9,142.78 -318.9,318.9 0,176.12 142.8,318.89 318.9,318.89 176.2,0 318.9,-142.77 318.9,-318.89"
         style="fill:#fabedb;fill-opacity:1;fill-rule:nonzero;stroke:none"
         id="path222" /><path
         d="m 9285.2,7862.95 c 0,-176.12 -142.79,-318.9 -318.9,-318.9 -176.12,0 -318.9,142.78 -318.9,318.9 0,176.12 142.78,318.9 318.9,318.9 176.11,0 318.9,-142.78 318.9,-318.9"
         style="fill:#fabedb;fill-opacity:1;fill-rule:nonzero;stroke:none"
         id="path224" /><path
         d="m 9025.33,5188.25 c -29.57,-4.27 -49.32,-28.2 -71.93,-45.95 -26.24,-20.61 -54.32,-39 -83.19,-55.67 -53.04,-30.62 -109.17,-54.82 -168.06,-71.69 -123.18,-35.24 -253.47,-39.54 -379.66,-19.04 -26.87,4.4 -37.52,-31.7 -11.33,-41.1 132.14,-47.2 275.67,-47.5 410.77,-11.6 65.1,17.2 129.05,42.8 187.71,75.96 47.85,27.05 140.3,74.34 152.03,132.75 4.79,23.81 -13.59,39.63 -36.34,36.34"
         style="fill:#ffffff;fill-opacity:1;fill-rule:nonzero;stroke:none"
         id="path226" /><path
         d="m 9164.57,5261.07 c -27.43,0 -27.47,-42.62 0,-42.62 27.42,0 27.47,42.62 0,42.62"
         style="fill:#ffffff;fill-opacity:1;fill-rule:nonzero;stroke:none"
         id="path228" /><path
         d="m 11607.3,5060.19 c -66.3,21.43 -142.6,11.94 -211.4,19.6 -77,8.55 -152.8,26.05 -226.6,49.15 -72.1,22.54 -141.1,52.37 -207.5,88.1 -62.3,33.48 -120.6,86.4 -186.3,111.34 -16.3,6.23 -30.5,-15.02 -22.1,-28.82 36.4,-60.24 115.4,-104.88 174.7,-140.08 69.8,-41.43 145,-74.8 221.7,-101.04 75.1,-25.65 152.8,-42.16 231.5,-52.04 74.2,-9.3 161.6,-21.5 231.6,10.97 19.4,9.05 12,37.13 -5.6,42.82"
         style="fill:#ffffff;fill-opacity:1;fill-rule:nonzero;stroke:none"
         id="path230" /><path
         d="m 11794.2,5042.93 c -30.7,0 -30.8,-47.73 0,-47.73 30.6,0 30.7,47.73 0,47.73"
         style="fill:#ffffff;fill-opacity:1;fill-rule:nonzero;stroke:none"
         id="path232" /><path
         d="m 11295.1,7367.55 c -19.4,8.05 -37,-22.69 -20.8,-35.62 33.3,-26.59 60,-53.59 75.7,-94.23 14,-35.99 9.6,-72.62 17.8,-109.33 4.2,-18.55 29.7,-19.98 39,-5.09 53,85.31 -32,211.12 -111.7,244.27"
         style="fill:#ffffff;fill-opacity:1;fill-rule:nonzero;stroke:none"
         id="path234" /><path
         d="m 8723.78,7095.16 c 11.72,27.68 -22.27,48.22 -40.45,23.64 -40.73,-55.08 -59.93,-119.09 -65.2,-187.04 -4.5,-58.1 -3.86,-138.09 43.08,-179.34 8.67,-7.61 26.31,-6.11 28.57,7.55 8.62,52.21 -11.24,103.85 -9.84,157 1.61,61.62 19.95,121.74 43.84,178.19"
         style="fill:#ffffff;fill-opacity:1;fill-rule:nonzero;stroke:none"
         id="path236" /><path
         d="m 8955.2,11595.8 c -19.94,34.4 -37.73,69.6 -52.22,106.6 -26.72,68.4 -32.62,138.4 -51.19,208.4 -4.63,17.4 -34.21,19.5 -37.44,0 -12.06,-73.1 8.46,-155 32.16,-223.9 20.84,-60.6 52.53,-155.2 115.18,-183 10.2,-4.5 27.02,0.5 25.4,14.6 -3.49,30.5 -16.74,51.2 -31.89,77.3"
         style="fill:#ffffff;fill-opacity:1;fill-rule:nonzero;stroke:none"
         id="path238" /><path
         d="m 11856.6,10394.3 c -35.7,86.7 -81.9,168.3 -138.5,243 -109.3,144.4 -256.1,262 -427.9,322.1 -17.8,6.2 -28.7,-21 -12.7,-30.1 151.1,-85.6 285.4,-197 387.2,-338.5 49.4,-68.7 91.4,-143.6 122.3,-222.5 30.3,-77.4 39.9,-164.1 80.7,-235.9 8.5,-15 33.2,-12.3 37.4,4.9 20.4,85.2 -15.9,177.8 -48.5,257"
         style="fill:#ffffff;fill-opacity:1;fill-rule:nonzero;stroke:none"
         id="path240" /><path
         d="m 7725.42,7344.35 c 27.38,62.35 49.76,124.27 70.11,189.06 6.35,20.2 -22.89,31.63 -33.55,14.14 -44.4,-72.85 -81.84,-146.54 -117.54,-224.21 -28.59,-62.23 -59.28,-125.23 -65.81,-194.36 -6.21,-65.93 12.38,-129.93 42.6,-188.05 26.87,-51.65 70.52,-130.06 127.52,-151.94 16.01,-6.14 26.56,11.36 24.66,24.66 -7.55,53 -60.71,102.11 -86.17,148.47 -33.41,60.81 -51.19,127.08 -35.72,196.05 14.61,65.14 47.24,125.44 73.9,186.18"
         style="fill:#ffffff;fill-opacity:1;fill-rule:nonzero;stroke:none"
         id="path242" /><path
         d="m 5437.78,7728.43 c -44.11,14.44 -93.52,4.66 -139.07,4.65 -51.35,-0.01 -102.15,5.83 -152.09,17.83 -100.91,24.23 -197.14,69.47 -278.28,134.38 -21.52,17.22 -51.64,-10.68 -31.04,-31.03 81.34,-80.33 180.48,-139.42 291.18,-169.14 89.89,-24.13 239.18,-54.86 318.15,9.81 12.41,10.16 4.18,29.24 -8.85,33.5"
         style="fill:#ffffff;fill-opacity:1;fill-rule:nonzero;stroke:none"
         id="path244" /><path
         d="m 4689.01,6866.63 c -16.52,18.88 -38.13,23.05 -61.79,29.23 -32.42,8.46 -64.31,17.41 -95.3,30.36 -48.84,20.42 -97.21,67.2 -149.73,73.06 -9.22,1.02 -16,-9.86 -13.64,-17.9 16.16,-55.09 95.34,-90.73 143.12,-112.27 45.4,-20.45 126.55,-59.69 174.01,-28.33 9.25,6.12 10.56,17.6 3.33,25.85"
         style="fill:#ffffff;fill-opacity:1;fill-rule:nonzero;stroke:none"
         id="path246" /><path
         d="m 3548.99,5422.44 c -6.17,47.74 -27.48,92.83 -41.66,138.67 -14.83,47.93 -25.87,97.17 -32.33,146.93 -6.46,49.76 -9.45,100.16 -8.37,150.34 1.09,51.04 10.42,102.73 8.7,153.61 -0.63,18.51 -28.28,29.06 -37.36,10.12 -44.63,-93.13 -41.31,-218.43 -29.03,-318.52 11.68,-95.21 31.47,-225.26 100.79,-297.41 12.63,-13.14 41.9,-4.17 39.26,16.26"
         style="fill:#ffffff;fill-opacity:1;fill-rule:nonzero;stroke:none"
         id="path248" /><path
         d="m 3570.8,3351.1 c -56.38,9 -113.53,-4.9 -169.7,-10.7 -63.75,-6.6 -127.8,-10.2 -191.9,-9.3 -125.84,1.6 -246.64,28.4 -371.14,39.7 -18.28,1.6 -26.01,-27.2 -9.48,-35 112.51,-53.2 249.27,-67 372.26,-71.1 66.78,-2.2 133.85,-0.3 200.26,7.2 58.69,6.7 123.83,12 174.09,45.7 11.69,7.8 12.46,30.8 -4.39,33.5"
         style="fill:#ffffff;fill-opacity:1;fill-rule:nonzero;stroke:none"
         id="path250" /><path
         d="m 2954.89,2973.1 c -48.97,11.6 -101.71,7.7 -151.78,10.6 -59.57,3.5 -118.52,11.4 -177.08,22.8 -108.54,21 -214.62,54.2 -318,93.1 -16.43,6.2 -26.15,-19.2 -11.71,-27.7 99.9,-59.1 208.51,-99.7 322.07,-123.6 55.45,-11.7 112.05,-19.4 168.52,-24 54.3,-4.4 115.43,-10.2 167.98,6.9 19.45,6.3 21.87,36.7 0,41.9"
         style="fill:#ffffff;fill-opacity:1;fill-rule:nonzero;stroke:none"
         id="path252" /><path
         d="m 8344.46,10532 c 0,-37.6 -30.47,-68.1 -68.05,-68.1 -37.58,0 -68.05,30.5 -68.05,68.1 0,37.6 30.47,68.1 68.05,68.1 37.58,0 68.05,-30.5 68.05,-68.1"
         style="fill:#ffffff;fill-opacity:1;fill-rule:nonzero;stroke:none"
         id="path254" /><path
         d="m 12398.4,6999.39 c 0,-33.45 -27.1,-60.57 -60.5,-60.57 -33.5,0 -60.6,27.12 -60.6,60.57 0,33.44 27.1,60.56 60.6,60.56 33.4,0 60.5,-27.12 60.5,-60.56"
         style="fill:#ffffff;fill-opacity:1;fill-rule:nonzero;stroke:none"
         id="path256" /><path
         d="m 3180.8,4546.5 c 0,-33.5 -27.16,-60.6 -60.67,-60.6 -33.5,0 -60.67,27.1 -60.67,60.6 0,33.5 27.17,60.7 60.67,60.7 33.51,0 60.67,-27.2 60.67,-60.7"
         style="fill:#ffffff;fill-opacity:1;fill-rule:nonzero;stroke:none"
         id="path258" /><path
         d="m 3847.61,2788.8 c 0,-33.5 -27.17,-60.7 -60.67,-60.7 -33.51,0 -60.67,27.2 -60.67,60.7 0,33.5 27.16,60.6 60.67,60.6 33.5,0 60.67,-27.1 60.67,-60.6"
         style="fill:#ffffff;fill-opacity:1;fill-rule:nonzero;stroke:none"
         id="path260" /><path
         d="m 4345.94,3754.2 c -77.88,59.7 -176.65,15.2 -201.22,-60.5 -50.47,30.1 -115.35,36 -157.84,-13.7 -119.38,-139.8 153.12,-305.9 247.09,-363.5 22.71,-13.9 51.04,-4.1 64.93,17 66.17,100.4 172.93,324.3 47.04,420.7"
         style="fill:#f89ece;fill-opacity:1;fill-rule:nonzero;stroke:none"
         id="path262" /><path
         d="m 6964.24,9184.03 c -65.84,74.56 -176.36,102.76 -259.32,41.49 -55.46,-40.96 -80.01,-99.01 -87.65,-162.02 -58.36,51.93 -129.39,86.06 -209.97,89.42 -127.33,5.31 -257.91,-79.05 -298.77,-207.94 -48.09,-151.71 47.45,-288.61 153,-381.29 68.55,-60.18 142.01,-114.7 213.18,-171.37 76.47,-60.92 152.32,-122.74 230.67,-180.97 45.65,-33.92 99.83,-24.8 128.84,27.19 107.35,192.44 180.68,408.82 203.17,631.28 11.26,111.31 2.73,228.28 -73.15,314.21"
         style="fill:#f89ece;fill-opacity:1;fill-rule:nonzero;stroke:none"
         id="path264" /><path
         d="m 11971.8,11730.4 c 0,-57.3 -46.5,-103.8 -103.8,-103.8 -57.3,0 -103.8,46.5 -103.8,103.8 0,57.3 46.5,103.8 103.8,103.8 57.3,0 103.8,-46.5 103.8,-103.8"
         style="fill:#f7f7ae;fill-opacity:1;fill-rule:nonzero;stroke:none"
         id="path266" /><path
         d="m 3004.01,5672.55 c 0,-87.46 -70.9,-158.36 -158.36,-158.36 -87.46,0 -158.36,70.9 -158.36,158.36 0,87.46 70.9,158.36 158.36,158.36 87.46,0 158.36,-70.9 158.36,-158.36"
         style="fill:#e3b0dd;fill-opacity:1;fill-rule:nonzero;stroke:none"
         id="path268" /><path
         d="m 5502.55,9609.2 c 0,-63.9 -51.8,-115.7 -115.7,-115.7 -63.9,0 -115.7,51.8 -115.7,115.7 0,63.9 51.8,115.7 115.7,115.7 63.9,0 115.7,-51.8 115.7,-115.7"
         style="fill:#f7f7ae;fill-opacity:1;fill-rule:nonzero;stroke:none"
         id="path270" /><path
         d="m 13400.4,9946.08 c 0,-63.9 -51.8,-115.7 -115.7,-115.7 -63.9,0 -115.7,51.8 -115.7,115.7 0,63.92 51.8,115.72 115.7,115.72 63.9,0 115.7,-51.8 115.7,-115.72"
         style="fill:#f7f7ae;fill-opacity:1;fill-rule:nonzero;stroke:none"
         id="path272" /><path
         d="m 13129.3,3070.1 c 0,-81.6 -66.2,-147.8 -147.8,-147.8 -81.6,0 -147.8,66.2 -147.8,147.8 0,81.6 66.2,147.8 147.8,147.8 81.6,0 147.8,-66.2 147.8,-147.8"
         style="fill:#f7f7ae;fill-opacity:1;fill-rule:nonzero;stroke:none"
         id="path274" /><path
         d="m 7761.96,11418.6 c 0,-114.8 -93.11,-207.9 -207.98,-207.9 -114.85,0 -207.97,93.1 -207.97,207.9 0,114.9 93.12,208 207.97,208 114.87,0 207.98,-93.1 207.98,-208"
         style="fill:#e3b0dd;fill-opacity:1;fill-rule:nonzero;stroke:none"
         id="path276" /><path
         d="m 13129.3,8198.01 c 0,-40.81 -33.1,-73.9 -73.9,-73.9 -40.8,0 -73.9,33.09 -73.9,73.9 0,40.8 33.1,73.89 73.9,73.89 40.8,0 73.9,-33.09 73.9,-73.89"
         style="fill:#e3b0dd;fill-opacity:1;fill-rule:nonzero;stroke:none"
         id="path278" /><path
         d="m 5870.18,11256.1 -206.08,83.5 -185.59,-122.5 15.7,221.8 -173.8,138.7 215.78,53.6 78.17,208.1 117.67,-188.6 222.11,-10.1 -143.06,-170.2 59.1,-214.3"
         style="fill:#abe0f8;fill-opacity:1;fill-rule:nonzero;stroke:none"
         id="path280" /><path
         d="m 13103.4,1728.5 -113.6,126.1 -168.3,-22.2 84.8,147 -73,153.2 166,-35.2 123.1,116.8 17.8,-168.8 149.1,-81 -155,-69.1 -30.9,-166.8"
         style="fill:#abe0f8;fill-opacity:1;fill-rule:nonzero;stroke:none"
         id="path282" /><path
         d="m 2240.23,4021.9 -113.59,126.1 -168.24,-22.2 84.78,147 -73.01,153.2 165.99,-35.2 123.12,116.8 17.8,-168.8 149.1,-81 -154.99,-69.1 -30.96,-166.8"
         style="fill:#abe0f8;fill-opacity:1;fill-rule:nonzero;stroke:none"
         id="path284" /></g></g></svg>
